<svg width="360" height="114" viewBox="0 0 360 114" fill="none" xmlns="http://www.w3.org/2000/svg">
<mask id="mask0_113_178" style="mask-type:luminance" maskUnits="userSpaceOnUse" x="0" y="0" width="360" height="114">
<path d="M0 0H360V114H0V0Z" fill="white"/>
</mask>
<g mask="url(#mask0_113_178)">
<path d="M0.0214844 0H359.982V114H0.0214844V0Z" fill="#C0C0C0"/>
</g>
<path d="M344.542 8.8457H7.61719V105.293H15.3338V17.5486H344.542V8.8457Z" fill="white"/>
<path d="M15.334 105.293H352.262V8.8457H344.542V96.5906H15.334V105.293Z" fill="black" fill-opacity="0.3"/>
<mask id="mask1_113_178" style="mask-type:luminance" maskUnits="userSpaceOnUse" x="0" y="0" width="360" height="114">
<path d="M0 0H359.922V114H0V0Z" fill="white"/>
</mask>
<g mask="url(#mask1_113_178)">
<path d="M352.262 0H0.0214844V114H359.737V0H352.262ZM352.262 105.293H7.7381V8.70291H352.262V105.293ZM157.088 42.9615H146.552V38.8866H157.088V42.9615ZM157.088 46.89V42.8191H160.643V46.89H157.088ZM146.431 42.9615V55.0317H142.877V42.9615H146.431ZM146.431 67.1059V71.1768H142.877V67.1059H146.431ZM157.088 55.0317V59.1066H146.552V55.0317H157.088ZM160.519 71.1768H156.968V59.1066H160.519V71.1768ZM146.431 75.2517V71.1768H156.968V75.2517H146.431ZM168.484 71.1768H164.929V42.9615H168.484V51.1032H172.039V55.174H168.484V71.1768ZM168.484 75.2517V71.1768H172.039V75.2517H168.484ZM190.536 63.0351H180V58.9643H190.536V54.8934H194.091V75.1094H180V71.0385H190.536V63.0351ZM190.536 50.9608V55.0317H180V50.9608H190.536ZM180 71.1768H176.449V63.0351H180V71.1768ZM202.053 75.2517H198.502V50.9608H205.607V55.0317H202.053V75.2517ZM213.448 71.1768H209.894V42.9615H213.448V51.1032H217.003V55.174H213.448V71.1768ZM213.448 75.2517V71.1768H217.003V75.2517H213.448Z" fill="#2B2D74"/>
</g>
<mask id="mask2_113_178" style="mask-type:luminance" maskUnits="userSpaceOnUse" x="114" y="28" width="143" height="58">
<path d="M114.254 28.085H256.9V85.9309H114.254V28.085Z" fill="white"/>
</mask>
<g mask="url(#mask2_113_178)">
<mask id="mask3_113_178" style="mask-type:luminance" maskUnits="userSpaceOnUse" x="113" y="27" width="145" height="60">
<path d="M257.195 27.2314H113.559V86.5739H257.195V27.2314Z" fill="white"/>
</mask>
<g mask="url(#mask3_113_178)">
<mask id="mask4_113_178" style="mask-type:luminance" maskUnits="userSpaceOnUse" x="114" y="28" width="143" height="58">
<path d="M114.255 28.085H256.9V85.9309H114.255V28.085Z" fill="white"/>
</mask>
<g mask="url(#mask4_113_178)">
<path d="M114.255 28.085H256.908V85.9309H114.255V28.085Z" fill="#C0C0C0"/>
</g>
</g>
</g>
<mask id="mask5_113_178" style="mask-type:luminance" maskUnits="userSpaceOnUse" x="31" y="28" width="51" height="58">
<path d="M31.374 28.085H81.8286V85.8658H31.374V28.085Z" fill="white"/>
</mask>
<g mask="url(#mask5_113_178)">
<path d="M81.8818 59.2324H58.5722V85.9268H54.6872V59.2324H31.374V54.7834H54.6872V28.085H58.5722V54.7834H81.8818V59.2324Z" fill="white"/>
</g>
<mask id="mask6_113_178" style="mask-type:luminance" maskUnits="userSpaceOnUse" x="97" y="30" width="232" height="61">
<path d="M328.104 30.3545H97.1953V90.7381H328.104V30.3545Z" fill="white"/>
</mask>
<g mask="url(#mask6_113_178)">
<path d="M101.298 78.1164V42.8168H106.426V60.4666H121.838V42.8168H126.98V78.1164H121.838V66.3553H106.426V78.1164H101.298ZM106.426 42.8168V36.9443H121.838V42.8168H106.426Z" fill="white"/>
<path d="M132.115 78.1164V36.9443H152.655V42.8168H137.243V72.2277H152.655V78.1164H132.115ZM152.655 72.2277V42.8168H157.797V72.2277H152.655Z" fill="white"/>
<path d="M162.932 78.1164V36.9443H183.471V42.8168H168.059V72.2277H183.471V78.1164H162.932ZM183.471 72.2277V42.8168H188.613V72.2277H183.471Z" fill="white"/>
<path d="M216.86 78.1164V42.8168H206.59V36.9443H232.272V42.8168H222.002V78.1164H216.86Z" fill="white"/>
<path d="M237.406 78.1164V42.8168H242.534V60.4666H257.946V42.8168H263.088V78.1164H257.946V66.3553H242.534V78.1164H237.406ZM242.534 42.8168V36.9443H257.946V42.8168H242.534Z" fill="white"/>
<path d="M273.351 42.8168V54.5942H268.224V42.8168H273.351ZM268.224 72.2277V66.3553H273.351V72.2277H268.224ZM273.351 78.1164V72.2277H288.763V78.1164H273.351ZM273.351 60.4666V54.5942H288.763V60.4666H273.351ZM273.351 42.8168V36.9443H288.763V42.8168H273.351ZM288.763 72.2277V60.4666H293.905V72.2277H288.763ZM288.763 48.7055V42.8168H293.905V48.7055H288.763Z" fill="white"/>
<path d="M299.041 78.1164V36.9443H304.169V54.5942H314.453V60.4666H304.169V78.1164H299.041ZM314.453 66.3553V60.4666H319.581V66.3553H314.453ZM314.453 54.5942V48.7055H319.581V54.5942H314.453ZM319.581 78.1164V66.3553H324.723V78.1164H319.581ZM319.581 48.7055V36.9443H324.723V48.7055H319.581Z" fill="white"/>
</g>
</svg>
