<svg width="412" height="114" viewBox="0 0 412 114" fill="none" xmlns="http://www.w3.org/2000/svg">
<mask id="mask0_176_10292" style="mask-type:luminance" maskUnits="userSpaceOnUse" x="0" y="0" width="412" height="114">
<path d="M0 0H412V113.924H0V0Z" fill="white"/>
</mask>
<g mask="url(#mask0_176_10292)">
<path d="M0.0205078 0H411.976V113.924H0.0205078V0Z" fill="#C0C0C0"/>
</g>
<path d="M394.31 8.83887H8.71387V105.227H17.5492V17.536H394.31V8.83887Z" fill="white"/>
<path d="M17.5488 105.227H403.145V8.83887H394.309V96.5254H17.5488V105.227Z" fill="black" fill-opacity="0.3"/>
<mask id="mask1_176_10292" style="mask-type:luminance" maskUnits="userSpaceOnUse" x="0" y="0" width="412" height="114">
<path d="M0 0H412V113.924H0V0Z" fill="white"/>
</mask>
<g mask="url(#mask1_176_10292)">
<path d="M403.145 0H0.0205078V113.924H411.695V0H403.145ZM403.145 105.227H8.85581V8.69713H403.145V105.227ZM179.779 42.9329H167.721V38.8648H179.779V42.9329ZM179.779 46.8588V42.7907H183.847V46.8588H179.779ZM167.582 42.9329V54.9992H163.514V42.9329H167.582ZM167.582 67.0654V71.1336H163.514V67.0654H167.582ZM179.779 54.9992V59.0673H167.721V54.9992H179.779ZM183.705 71.1336H179.641V59.0673H183.705V71.1336ZM167.582 75.2017V71.1336H179.641V75.2017H167.582ZM192.82 71.1336H188.752V42.9329H192.82V51.0692H196.884V55.1373H192.82V71.1336ZM192.82 75.2017V71.1336H196.884V75.2017H192.82ZM218.058 62.9973H206V58.9251H218.058V54.8569H222.126V75.0595H206V70.9913H218.058V62.9973ZM218.058 50.931V54.9992H206V50.931H218.058ZM206 71.1336H201.932V62.9973H206V71.1336ZM231.238 75.2017H227.174V50.931H235.306V54.9992H231.238V75.2017ZM244.28 71.1336H240.212V42.9329H244.28V51.0692H248.344V55.1373H244.28V71.1336ZM244.28 75.2017V71.1336H248.344V75.2017H244.28Z" fill="black"/>
</g>
<mask id="mask2_176_10292" style="mask-type:luminance" maskUnits="userSpaceOnUse" x="130" y="28" width="165" height="58">
<path d="M130.758 28.0703H294.008V85.8737H130.758V28.0703Z" fill="white"/>
</mask>
<g mask="url(#mask2_176_10292)">
<mask id="mask3_176_10292" style="mask-type:luminance" maskUnits="userSpaceOnUse" x="130" y="27" width="165" height="60">
<path d="M294.581 27.8994H130.197V86.162H294.581V27.8994Z" fill="white"/>
</mask>
<g mask="url(#mask3_176_10292)">
<mask id="mask4_176_10292" style="mask-type:luminance" maskUnits="userSpaceOnUse" x="130" y="28" width="165" height="58">
<path d="M130.758 28.0703H294.008V85.8737H130.758V28.0703Z" fill="white"/>
</mask>
<g mask="url(#mask4_176_10292)">
<path d="M130.758 28.0703H294.016V85.8737H130.758V28.0703Z" fill="#C0C0C0"/>
</g>
</g>
</g>
<mask id="mask5_176_10292" style="mask-type:luminance" maskUnits="userSpaceOnUse" x="336" y="31" width="38" height="52">
<path d="M336.075 31.501H373.53V82.2207H336.075V31.501Z" fill="white"/>
</mask>
<g mask="url(#mask5_176_10292)">
<path d="M368.693 49.8166H364.117V45.2364H359.537V40.6603H354.961V36.0801H350.381V31.5039H336.075V82.4349H350.381V77.8588H354.961V73.2786H359.537V68.7024H364.117V64.1222H368.693V59.542H373.274V54.3969H368.693V49.8166Z" fill="black"/>
</g>
<path d="M363.548 58.9734V63.5536H358.967V68.1298H354.391V72.71H349.811V77.2902H341.224V36.6494H349.811V41.2296H354.391V45.8098H358.967V50.386H363.548V54.9662H368.124V58.9734H363.548Z" fill="#FFE501"/>
<path d="M41.707 72.968V35.0908H63.3604V40.5042H47.1204V51.3309H63.3604V56.7442H47.1204V67.5547H63.3604V72.968H41.707ZM63.3604 67.5547V56.7442H68.7575V67.5547H63.3604ZM63.3604 51.3309V40.5042H68.7575V51.3309H63.3604Z" fill="#2B2D74"/>
<path d="M74.165 72.968V35.0908H95.8184V40.5042H79.5784V51.3309H95.8184V56.7442H90.4051V62.1413H84.9917V56.7442H79.5784V72.968H74.165ZM90.4051 67.5547V62.1413H95.8184V67.5547H90.4051ZM95.8184 72.968V67.5547H101.216V72.968H95.8184ZM95.8184 51.3309V40.5042H101.216V51.3309H95.8184Z" fill="#2B2D74"/>
<path d="M106.623 72.968V40.5042H112.036V56.7442H128.276V40.5042H133.674V72.968H128.276V62.1413H112.036V72.968H106.623ZM112.036 40.5042V35.0908H128.276V40.5042H112.036Z" fill="#2B2D74"/>
<path d="M160.734 67.5547V72.968H144.494V67.5547H160.734ZM139.081 67.5547V40.5042H144.494V67.5547H139.081ZM144.494 40.5042V35.0908H160.734V40.5042H144.494ZM155.321 56.7442V51.3309H166.132V67.5547H160.734V56.7442H155.321ZM160.734 45.9175V40.5042H166.132V45.9175H160.734Z" fill="#2B2D74"/>
<path d="M185.063 72.968V35.0908H206.717V40.5042H190.477V67.5547H206.717V72.968H185.063ZM206.717 67.5547V40.5042H212.114V67.5547H206.717Z" fill="#2B2D74"/>
<path d="M239.175 67.5547V72.968H222.935V67.5547H239.175ZM217.521 67.5547V40.5042H222.935V67.5547H217.521ZM222.935 40.5042V35.0908H239.175V40.5042H222.935ZM239.175 67.5547V40.5042H244.572V67.5547H239.175Z" fill="#2B2D74"/>
<path d="M249.979 67.5547V40.5042H255.393V67.5547H249.979ZM255.393 72.968V67.5547H271.633V72.968H255.393ZM255.393 40.5042V35.0908H271.633V40.5042H255.393ZM271.633 67.5547V62.1413H277.03V67.5547H271.633ZM271.633 45.9175V40.5042H277.03V45.9175H271.633Z" fill="#2B2D74"/>
<path d="M287.851 40.5042V51.3309H282.438V40.5042H287.851ZM282.438 67.5547V62.1413H287.851V67.5547H282.438ZM287.851 72.968V67.5547H304.091V72.968H287.851ZM287.851 56.7442V51.3309H304.091V56.7442H287.851ZM287.851 40.5042V35.0908H304.091V40.5042H287.851ZM304.091 67.5547V56.7442H309.488V67.5547H304.091ZM304.091 45.9175V40.5042H309.488V45.9175H304.091Z" fill="#2B2D74"/>
</svg>
