<svg xmlns="http://www.w3.org/2000/svg" xmlns:xlink="http://www.w3.org/1999/xlink" width="1920" zoomAndPan="magnify" viewBox="0 0 1440 809.999993" height="1080" preserveAspectRatio="xMidYMid meet" version="1.2"><defs><clipPath id="b873e53597"><path d="M 0.078125 1 L 175 1 L 175 176 L 0.078125 176 Z M 0.078125 1 "/></clipPath><clipPath id="cf8d1e2850"><rect x="0" width="568" y="0" height="180"/></clipPath><clipPath id="efd8263d69"><path d="M 0.320312 1 L 175 1 L 175 176 L 0.320312 176 Z M 0.320312 1 "/></clipPath><clipPath id="c9dbb5befb"><rect x="0" width="569" y="0" height="180"/></clipPath><clipPath id="bf39770b68"><path d="M 805 39 L 1373.71875 39 L 1373.71875 219 L 805 219 Z M 805 39 "/></clipPath><clipPath id="4c3b946732"><rect x="0" width="569" y="0" height="180"/></clipPath><clipPath id="c9c1172dfe"><rect x="0" width="569" y="0" height="180"/></clipPath><clipPath id="9728932473"><path d="M 0.921875 0.398438 L 163 0.398438 L 163 241.601562 L 0.921875 241.601562 Z M 0.921875 0.398438 "/></clipPath><clipPath id="00ebf4b5ee"><rect x="0" width="163" y="0" height="242"/></clipPath><clipPath id="71f2cb0ef8"><rect x="0" width="1374" y="0" height="242"/></clipPath></defs><g id="793d7bcae3"><g transform="matrix(1,0,0,1,37,284)"><g clip-path="url(#71f2cb0ef8)"><g transform="matrix(1,0,0,1,195,39)"><g id="1d1f3b203b" clip-path="url(#cf8d1e2850)"><g clip-rule="nonzero" clip-path="url(#b873e53597)"><g style="fill:#2a2d74;fill-opacity:1;"><g transform="translate(16.275999, 179.65278)"><path style="stroke:none" d="M -15.65625 -20.332031 L -15.65625 -178.320312 L 137.65625 -178.320312 L 137.65625 -142.332031 L 122 -142.332031 L 122 -157.988281 L 157.988281 -157.988281 L 157.988281 -86.007812 L 122 -86.007812 L 122 -101.664062 L 137.65625 -101.664062 L 137.65625 -81.332031 L 122 -81.332031 L 122 -96.988281 L 157.988281 -96.988281 L 157.988281 -25.007812 L 122 -25.007812 L 122 -40.667969 L 137.65625 -40.667969 L 137.65625 -4.675781 L -15.65625 -4.675781 Z M 15.65625 -20.332031 L 0 -20.332031 L 0 -35.992188 L 122 -35.992188 L 122 -20.332031 L 106.339844 -20.332031 L 106.339844 -56.324219 L 142.332031 -56.324219 L 142.332031 -40.667969 L 126.675781 -40.667969 L 126.675781 -81.332031 L 142.332031 -81.332031 L 142.332031 -65.675781 L 106.339844 -65.675781 L 106.339844 -117.324219 L 142.332031 -117.324219 L 142.332031 -101.664062 L 126.675781 -101.664062 L 126.675781 -142.332031 L 142.332031 -142.332031 L 142.332031 -126.675781 L 106.339844 -126.675781 L 106.339844 -162.664062 L 122 -162.664062 L 122 -147.007812 L 0 -147.007812 L 0 -162.664062 L 15.65625 -162.664062 Z M 40.667969 -117.324219 L 101.664062 -117.324219 L 101.664062 -101.664062 L 86.007812 -101.664062 L 86.007812 -142.332031 L 101.664062 -142.332031 L 101.664062 -126.675781 L 40.667969 -126.675781 L 40.667969 -142.332031 L 56.324219 -142.332031 L 56.324219 -101.664062 L 40.667969 -101.664062 Z M 25.007812 -86.007812 L 25.007812 -157.988281 L 117.324219 -157.988281 L 117.324219 -86.007812 Z M 40.667969 -56.324219 L 101.664062 -56.324219 L 101.664062 -40.667969 L 86.007812 -40.667969 L 86.007812 -81.332031 L 101.664062 -81.332031 L 101.664062 -65.675781 L 40.667969 -65.675781 L 40.667969 -81.332031 L 56.324219 -81.332031 L 56.324219 -40.667969 L 40.667969 -40.667969 Z M 25.007812 -25.007812 L 25.007812 -96.988281 L 117.324219 -96.988281 L 117.324219 -25.007812 Z M 25.007812 -25.007812 "/></g></g></g><g style="fill:#2a2d74;fill-opacity:1;"><g transform="translate(146.401002, 179.65278)"><path style="stroke:none" d="M -15.65625 -20.332031 L -15.65625 -178.320312 L 137.65625 -178.320312 L 137.65625 -142.332031 L 122 -142.332031 L 122 -157.988281 L 157.988281 -157.988281 L 157.988281 -65.675781 L 101.664062 -65.675781 L 101.664062 -81.332031 L 117.324219 -81.332031 L 117.324219 -61 L 101.664062 -61 L 101.664062 -76.65625 L 137.65625 -76.65625 L 137.65625 -40.667969 L 122 -40.667969 L 122 -56.324219 L 157.988281 -56.324219 L 157.988281 -4.675781 L 65.675781 -4.675781 L 65.675781 -40.667969 L 81.332031 -40.667969 L 81.332031 -25.007812 L 45.34375 -25.007812 L 45.34375 -61 L 61 -61 L 61 -45.34375 L 40.667969 -45.34375 L 40.667969 -61 L 56.324219 -61 L 56.324219 -4.675781 L -15.65625 -4.675781 Z M 15.65625 -20.332031 L 0 -20.332031 L 0 -35.992188 L 40.667969 -35.992188 L 40.667969 -20.332031 L 25.007812 -20.332031 L 25.007812 -76.65625 L 76.65625 -76.65625 L 76.65625 -40.667969 L 61 -40.667969 L 61 -56.324219 L 96.988281 -56.324219 L 96.988281 -20.332031 L 81.332031 -20.332031 L 81.332031 -35.992188 L 142.332031 -35.992188 L 142.332031 -20.332031 L 126.675781 -20.332031 L 126.675781 -40.667969 L 142.332031 -40.667969 L 142.332031 -25.007812 L 106.339844 -25.007812 L 106.339844 -61 L 122 -61 L 122 -45.34375 L 86.007812 -45.34375 L 86.007812 -96.988281 L 142.332031 -96.988281 L 142.332031 -81.332031 L 126.675781 -81.332031 L 126.675781 -142.332031 L 142.332031 -142.332031 L 142.332031 -126.675781 L 106.339844 -126.675781 L 106.339844 -162.664062 L 122 -162.664062 L 122 -147.007812 L 0 -147.007812 L 0 -162.664062 L 15.65625 -162.664062 Z M 40.667969 -96.988281 L 81.332031 -96.988281 L 81.332031 -81.332031 L 65.675781 -81.332031 L 65.675781 -117.324219 L 101.664062 -117.324219 L 101.664062 -101.664062 L 86.007812 -101.664062 L 86.007812 -142.332031 L 101.664062 -142.332031 L 101.664062 -126.675781 L 40.667969 -126.675781 L 40.667969 -142.332031 L 56.324219 -142.332031 L 56.324219 -81.332031 L 40.667969 -81.332031 Z M 25.007812 -65.675781 L 25.007812 -157.988281 L 117.324219 -157.988281 L 117.324219 -86.007812 L 81.332031 -86.007812 L 81.332031 -101.664062 L 96.988281 -101.664062 L 96.988281 -65.675781 Z M 25.007812 -65.675781 "/></g></g><g style="fill:#2a2d74;fill-opacity:1;"><g transform="translate(276.526006, 179.65278)"><path style="stroke:none" d="M -15.65625 -20.332031 L -15.65625 -137.65625 L 20.332031 -137.65625 L 20.332031 -122 L 4.675781 -122 L 4.675781 -157.988281 L 40.667969 -157.988281 L 40.667969 -142.332031 L 25.007812 -142.332031 L 25.007812 -178.320312 L 117.324219 -178.320312 L 117.324219 -142.332031 L 101.664062 -142.332031 L 101.664062 -157.988281 L 137.65625 -157.988281 L 137.65625 -122 L 122 -122 L 122 -137.65625 L 157.988281 -137.65625 L 157.988281 -4.675781 L 86.007812 -4.675781 L 86.007812 -61 L 101.664062 -61 L 101.664062 -45.34375 L 40.667969 -45.34375 L 40.667969 -61 L 56.324219 -61 L 56.324219 -4.675781 L -15.65625 -4.675781 Z M 15.65625 -20.332031 L 0 -20.332031 L 0 -35.992188 L 40.667969 -35.992188 L 40.667969 -20.332031 L 25.007812 -20.332031 L 25.007812 -76.65625 L 117.324219 -76.65625 L 117.324219 -20.332031 L 101.664062 -20.332031 L 101.664062 -35.992188 L 142.332031 -35.992188 L 142.332031 -20.332031 L 126.675781 -20.332031 L 126.675781 -122 L 142.332031 -122 L 142.332031 -106.339844 L 106.339844 -106.339844 L 106.339844 -142.332031 L 122 -142.332031 L 122 -126.675781 L 86.007812 -126.675781 L 86.007812 -162.664062 L 101.664062 -162.664062 L 101.664062 -147.007812 L 40.667969 -147.007812 L 40.667969 -162.664062 L 56.324219 -162.664062 L 56.324219 -126.675781 L 20.332031 -126.675781 L 20.332031 -142.332031 L 35.992188 -142.332031 L 35.992188 -106.339844 L 0 -106.339844 L 0 -122 L 15.65625 -122 Z M 40.667969 -96.988281 L 101.664062 -96.988281 L 101.664062 -81.332031 L 86.007812 -81.332031 L 86.007812 -122 L 101.664062 -122 L 101.664062 -106.339844 L 65.675781 -106.339844 L 65.675781 -142.332031 L 81.332031 -142.332031 L 81.332031 -126.675781 L 61 -126.675781 L 61 -142.332031 L 76.65625 -142.332031 L 76.65625 -106.339844 L 40.667969 -106.339844 L 40.667969 -122 L 56.324219 -122 L 56.324219 -81.332031 L 40.667969 -81.332031 Z M 25.007812 -65.675781 L 25.007812 -137.65625 L 61 -137.65625 L 61 -122 L 45.34375 -122 L 45.34375 -157.988281 L 96.988281 -157.988281 L 96.988281 -122 L 81.332031 -122 L 81.332031 -137.65625 L 117.324219 -137.65625 L 117.324219 -65.675781 Z M 25.007812 -65.675781 "/></g></g><g style="fill:#2a2d74;fill-opacity:1;"><g transform="translate(406.65101, 179.65278)"><path style="stroke:none" d="M 25.007812 -20.332031 L 25.007812 -40.667969 L 40.667969 -40.667969 L 40.667969 -25.007812 L 4.675781 -25.007812 L 4.675781 -61 L 20.332031 -61 L 20.332031 -45.34375 L -15.65625 -45.34375 L -15.65625 -137.65625 L 20.332031 -137.65625 L 20.332031 -122 L 4.675781 -122 L 4.675781 -157.988281 L 40.667969 -157.988281 L 40.667969 -142.332031 L 25.007812 -142.332031 L 25.007812 -178.320312 L 157.988281 -178.320312 L 157.988281 -126.675781 L 61 -126.675781 L 61 -142.332031 L 76.65625 -142.332031 L 76.65625 -106.339844 L 40.667969 -106.339844 L 40.667969 -122 L 56.324219 -122 L 56.324219 -61 L 40.667969 -61 L 40.667969 -76.65625 L 76.65625 -76.65625 L 76.65625 -40.667969 L 61 -40.667969 L 61 -56.324219 L 101.664062 -56.324219 L 101.664062 -40.667969 L 86.007812 -40.667969 L 86.007812 -81.332031 L 101.664062 -81.332031 L 101.664062 -65.675781 L 65.675781 -65.675781 L 65.675781 -117.324219 L 157.988281 -117.324219 L 157.988281 -4.675781 L 25.007812 -4.675781 Z M 56.324219 -20.332031 L 40.667969 -20.332031 L 40.667969 -35.992188 L 142.332031 -35.992188 L 142.332031 -20.332031 L 126.675781 -20.332031 L 126.675781 -101.664062 L 142.332031 -101.664062 L 142.332031 -86.007812 L 81.332031 -86.007812 L 81.332031 -101.664062 L 96.988281 -101.664062 L 96.988281 -81.332031 L 81.332031 -81.332031 L 81.332031 -96.988281 L 117.324219 -96.988281 L 117.324219 -25.007812 L 45.34375 -25.007812 L 45.34375 -61 L 61 -61 L 61 -45.34375 L 25.007812 -45.34375 L 25.007812 -137.65625 L 61 -137.65625 L 61 -122 L 45.34375 -122 L 45.34375 -157.988281 L 142.332031 -157.988281 L 142.332031 -142.332031 L 126.675781 -142.332031 L 126.675781 -162.664062 L 142.332031 -162.664062 L 142.332031 -147.007812 L 40.667969 -147.007812 L 40.667969 -162.664062 L 56.324219 -162.664062 L 56.324219 -126.675781 L 20.332031 -126.675781 L 20.332031 -142.332031 L 35.992188 -142.332031 L 35.992188 -106.339844 L 0 -106.339844 L 0 -122 L 15.65625 -122 L 15.65625 -61 L 0 -61 L 0 -76.65625 L 35.992188 -76.65625 L 35.992188 -40.667969 L 20.332031 -40.667969 L 20.332031 -56.324219 L 56.324219 -56.324219 Z M 56.324219 -20.332031 "/></g></g><g style="fill:#2a2d74;fill-opacity:1;"><g transform="translate(16.275999, 179.65278)"><path style="stroke:none" d="M 0 -20.328125 L 0 -162.671875 L 122 -162.671875 L 122 -142.34375 L 142.34375 -142.34375 L 142.34375 -101.671875 L 122 -101.671875 L 122 -81.328125 L 142.34375 -81.328125 L 142.34375 -40.671875 L 122 -40.671875 L 122 -20.328125 Z M 40.671875 -101.671875 L 101.671875 -101.671875 L 101.671875 -142.34375 L 40.671875 -142.34375 Z M 40.671875 -40.671875 L 101.671875 -40.671875 L 101.671875 -81.328125 L 40.671875 -81.328125 Z M 40.671875 -40.671875 "/></g></g><g style="fill:#2a2d74;fill-opacity:1;"><g transform="translate(146.401002, 179.65278)"><path style="stroke:none" d="M 0 -20.328125 L 0 -162.671875 L 122 -162.671875 L 122 -142.34375 L 142.34375 -142.34375 L 142.34375 -81.328125 L 101.671875 -81.328125 L 101.671875 -61 L 122 -61 L 122 -40.671875 L 142.34375 -40.671875 L 142.34375 -20.328125 L 81.328125 -20.328125 L 81.328125 -40.671875 L 61 -40.671875 L 61 -61 L 40.671875 -61 L 40.671875 -20.328125 Z M 40.671875 -81.328125 L 81.328125 -81.328125 L 81.328125 -101.671875 L 101.671875 -101.671875 L 101.671875 -142.34375 L 40.671875 -142.34375 Z M 40.671875 -81.328125 "/></g></g><g style="fill:#2a2d74;fill-opacity:1;"><g transform="translate(276.526006, 179.65278)"><path style="stroke:none" d="M 0 -20.328125 L 0 -122 L 20.328125 -122 L 20.328125 -142.34375 L 40.671875 -142.34375 L 40.671875 -162.671875 L 101.671875 -162.671875 L 101.671875 -142.34375 L 122 -142.34375 L 122 -122 L 142.34375 -122 L 142.34375 -20.328125 L 101.671875 -20.328125 L 101.671875 -61 L 40.671875 -61 L 40.671875 -20.328125 Z M 40.671875 -81.328125 L 101.671875 -81.328125 L 101.671875 -122 L 81.328125 -122 L 81.328125 -142.34375 L 61 -142.34375 L 61 -122 L 40.671875 -122 Z M 40.671875 -81.328125 "/></g></g><g style="fill:#2a2d74;fill-opacity:1;"><g transform="translate(406.65101, 179.65278)"><path style="stroke:none" d="M 40.671875 -20.328125 L 40.671875 -40.671875 L 20.328125 -40.671875 L 20.328125 -61 L 0 -61 L 0 -122 L 20.328125 -122 L 20.328125 -142.34375 L 40.671875 -142.34375 L 40.671875 -162.671875 L 142.34375 -162.671875 L 142.34375 -142.34375 L 61 -142.34375 L 61 -122 L 40.671875 -122 L 40.671875 -61 L 61 -61 L 61 -40.671875 L 101.671875 -40.671875 L 101.671875 -81.328125 L 81.328125 -81.328125 L 81.328125 -101.671875 L 142.34375 -101.671875 L 142.34375 -20.328125 Z M 40.671875 -20.328125 "/></g></g></g></g><g transform="matrix(1,0,0,1,183,13)"><g id="42dac92999" clip-path="url(#c9dbb5befb)"><g clip-rule="nonzero" clip-path="url(#efd8263d69)"><g style="fill:#2a2d74;fill-opacity:1;"><g transform="translate(16.448411, 179.810506)"><path style="stroke:none" d="M -15.65625 -20.332031 L -15.65625 -178.320312 L 137.65625 -178.320312 L 137.65625 -142.332031 L 122 -142.332031 L 122 -157.988281 L 157.988281 -157.988281 L 157.988281 -86.007812 L 122 -86.007812 L 122 -101.664062 L 137.65625 -101.664062 L 137.65625 -81.332031 L 122 -81.332031 L 122 -96.988281 L 157.988281 -96.988281 L 157.988281 -25.007812 L 122 -25.007812 L 122 -40.667969 L 137.65625 -40.667969 L 137.65625 -4.675781 L -15.65625 -4.675781 Z M 15.65625 -20.332031 L 0 -20.332031 L 0 -35.992188 L 122 -35.992188 L 122 -20.332031 L 106.339844 -20.332031 L 106.339844 -56.324219 L 142.332031 -56.324219 L 142.332031 -40.667969 L 126.675781 -40.667969 L 126.675781 -81.332031 L 142.332031 -81.332031 L 142.332031 -65.675781 L 106.339844 -65.675781 L 106.339844 -117.324219 L 142.332031 -117.324219 L 142.332031 -101.664062 L 126.675781 -101.664062 L 126.675781 -142.332031 L 142.332031 -142.332031 L 142.332031 -126.675781 L 106.339844 -126.675781 L 106.339844 -162.664062 L 122 -162.664062 L 122 -147.007812 L 0 -147.007812 L 0 -162.664062 L 15.65625 -162.664062 Z M 40.667969 -117.324219 L 101.664062 -117.324219 L 101.664062 -101.664062 L 86.007812 -101.664062 L 86.007812 -142.332031 L 101.664062 -142.332031 L 101.664062 -126.675781 L 40.667969 -126.675781 L 40.667969 -142.332031 L 56.324219 -142.332031 L 56.324219 -101.664062 L 40.667969 -101.664062 Z M 25.007812 -86.007812 L 25.007812 -157.988281 L 117.324219 -157.988281 L 117.324219 -86.007812 Z M 40.667969 -56.324219 L 101.664062 -56.324219 L 101.664062 -40.667969 L 86.007812 -40.667969 L 86.007812 -81.332031 L 101.664062 -81.332031 L 101.664062 -65.675781 L 40.667969 -65.675781 L 40.667969 -81.332031 L 56.324219 -81.332031 L 56.324219 -40.667969 L 40.667969 -40.667969 Z M 25.007812 -25.007812 L 25.007812 -96.988281 L 117.324219 -96.988281 L 117.324219 -25.007812 Z M 25.007812 -25.007812 "/></g></g></g><g style="fill:#2a2d74;fill-opacity:1;"><g transform="translate(146.573415, 179.810506)"><path style="stroke:none" d="M -15.65625 -20.332031 L -15.65625 -178.320312 L 137.65625 -178.320312 L 137.65625 -142.332031 L 122 -142.332031 L 122 -157.988281 L 157.988281 -157.988281 L 157.988281 -65.675781 L 101.664062 -65.675781 L 101.664062 -81.332031 L 117.324219 -81.332031 L 117.324219 -61 L 101.664062 -61 L 101.664062 -76.65625 L 137.65625 -76.65625 L 137.65625 -40.667969 L 122 -40.667969 L 122 -56.324219 L 157.988281 -56.324219 L 157.988281 -4.675781 L 65.675781 -4.675781 L 65.675781 -40.667969 L 81.332031 -40.667969 L 81.332031 -25.007812 L 45.34375 -25.007812 L 45.34375 -61 L 61 -61 L 61 -45.34375 L 40.667969 -45.34375 L 40.667969 -61 L 56.324219 -61 L 56.324219 -4.675781 L -15.65625 -4.675781 Z M 15.65625 -20.332031 L 0 -20.332031 L 0 -35.992188 L 40.667969 -35.992188 L 40.667969 -20.332031 L 25.007812 -20.332031 L 25.007812 -76.65625 L 76.65625 -76.65625 L 76.65625 -40.667969 L 61 -40.667969 L 61 -56.324219 L 96.988281 -56.324219 L 96.988281 -20.332031 L 81.332031 -20.332031 L 81.332031 -35.992188 L 142.332031 -35.992188 L 142.332031 -20.332031 L 126.675781 -20.332031 L 126.675781 -40.667969 L 142.332031 -40.667969 L 142.332031 -25.007812 L 106.339844 -25.007812 L 106.339844 -61 L 122 -61 L 122 -45.34375 L 86.007812 -45.34375 L 86.007812 -96.988281 L 142.332031 -96.988281 L 142.332031 -81.332031 L 126.675781 -81.332031 L 126.675781 -142.332031 L 142.332031 -142.332031 L 142.332031 -126.675781 L 106.339844 -126.675781 L 106.339844 -162.664062 L 122 -162.664062 L 122 -147.007812 L 0 -147.007812 L 0 -162.664062 L 15.65625 -162.664062 Z M 40.667969 -96.988281 L 81.332031 -96.988281 L 81.332031 -81.332031 L 65.675781 -81.332031 L 65.675781 -117.324219 L 101.664062 -117.324219 L 101.664062 -101.664062 L 86.007812 -101.664062 L 86.007812 -142.332031 L 101.664062 -142.332031 L 101.664062 -126.675781 L 40.667969 -126.675781 L 40.667969 -142.332031 L 56.324219 -142.332031 L 56.324219 -81.332031 L 40.667969 -81.332031 Z M 25.007812 -65.675781 L 25.007812 -157.988281 L 117.324219 -157.988281 L 117.324219 -86.007812 L 81.332031 -86.007812 L 81.332031 -101.664062 L 96.988281 -101.664062 L 96.988281 -65.675781 Z M 25.007812 -65.675781 "/></g></g><g style="fill:#2a2d74;fill-opacity:1;"><g transform="translate(276.698419, 179.810506)"><path style="stroke:none" d="M -15.65625 -20.332031 L -15.65625 -137.65625 L 20.332031 -137.65625 L 20.332031 -122 L 4.675781 -122 L 4.675781 -157.988281 L 40.667969 -157.988281 L 40.667969 -142.332031 L 25.007812 -142.332031 L 25.007812 -178.320312 L 117.324219 -178.320312 L 117.324219 -142.332031 L 101.664062 -142.332031 L 101.664062 -157.988281 L 137.65625 -157.988281 L 137.65625 -122 L 122 -122 L 122 -137.65625 L 157.988281 -137.65625 L 157.988281 -4.675781 L 86.007812 -4.675781 L 86.007812 -61 L 101.664062 -61 L 101.664062 -45.34375 L 40.667969 -45.34375 L 40.667969 -61 L 56.324219 -61 L 56.324219 -4.675781 L -15.65625 -4.675781 Z M 15.65625 -20.332031 L 0 -20.332031 L 0 -35.992188 L 40.667969 -35.992188 L 40.667969 -20.332031 L 25.007812 -20.332031 L 25.007812 -76.65625 L 117.324219 -76.65625 L 117.324219 -20.332031 L 101.664062 -20.332031 L 101.664062 -35.992188 L 142.332031 -35.992188 L 142.332031 -20.332031 L 126.675781 -20.332031 L 126.675781 -122 L 142.332031 -122 L 142.332031 -106.339844 L 106.339844 -106.339844 L 106.339844 -142.332031 L 122 -142.332031 L 122 -126.675781 L 86.007812 -126.675781 L 86.007812 -162.664062 L 101.664062 -162.664062 L 101.664062 -147.007812 L 40.667969 -147.007812 L 40.667969 -162.664062 L 56.324219 -162.664062 L 56.324219 -126.675781 L 20.332031 -126.675781 L 20.332031 -142.332031 L 35.992188 -142.332031 L 35.992188 -106.339844 L 0 -106.339844 L 0 -122 L 15.65625 -122 Z M 40.667969 -96.988281 L 101.664062 -96.988281 L 101.664062 -81.332031 L 86.007812 -81.332031 L 86.007812 -122 L 101.664062 -122 L 101.664062 -106.339844 L 65.675781 -106.339844 L 65.675781 -142.332031 L 81.332031 -142.332031 L 81.332031 -126.675781 L 61 -126.675781 L 61 -142.332031 L 76.65625 -142.332031 L 76.65625 -106.339844 L 40.667969 -106.339844 L 40.667969 -122 L 56.324219 -122 L 56.324219 -81.332031 L 40.667969 -81.332031 Z M 25.007812 -65.675781 L 25.007812 -137.65625 L 61 -137.65625 L 61 -122 L 45.34375 -122 L 45.34375 -157.988281 L 96.988281 -157.988281 L 96.988281 -122 L 81.332031 -122 L 81.332031 -137.65625 L 117.324219 -137.65625 L 117.324219 -65.675781 Z M 25.007812 -65.675781 "/></g></g><g style="fill:#2a2d74;fill-opacity:1;"><g transform="translate(406.823423, 179.810506)"><path style="stroke:none" d="M 25.007812 -20.332031 L 25.007812 -40.667969 L 40.667969 -40.667969 L 40.667969 -25.007812 L 4.675781 -25.007812 L 4.675781 -61 L 20.332031 -61 L 20.332031 -45.34375 L -15.65625 -45.34375 L -15.65625 -137.65625 L 20.332031 -137.65625 L 20.332031 -122 L 4.675781 -122 L 4.675781 -157.988281 L 40.667969 -157.988281 L 40.667969 -142.332031 L 25.007812 -142.332031 L 25.007812 -178.320312 L 157.988281 -178.320312 L 157.988281 -126.675781 L 61 -126.675781 L 61 -142.332031 L 76.65625 -142.332031 L 76.65625 -106.339844 L 40.667969 -106.339844 L 40.667969 -122 L 56.324219 -122 L 56.324219 -61 L 40.667969 -61 L 40.667969 -76.65625 L 76.65625 -76.65625 L 76.65625 -40.667969 L 61 -40.667969 L 61 -56.324219 L 101.664062 -56.324219 L 101.664062 -40.667969 L 86.007812 -40.667969 L 86.007812 -81.332031 L 101.664062 -81.332031 L 101.664062 -65.675781 L 65.675781 -65.675781 L 65.675781 -117.324219 L 157.988281 -117.324219 L 157.988281 -4.675781 L 25.007812 -4.675781 Z M 56.324219 -20.332031 L 40.667969 -20.332031 L 40.667969 -35.992188 L 142.332031 -35.992188 L 142.332031 -20.332031 L 126.675781 -20.332031 L 126.675781 -101.664062 L 142.332031 -101.664062 L 142.332031 -86.007812 L 81.332031 -86.007812 L 81.332031 -101.664062 L 96.988281 -101.664062 L 96.988281 -81.332031 L 81.332031 -81.332031 L 81.332031 -96.988281 L 117.324219 -96.988281 L 117.324219 -25.007812 L 45.34375 -25.007812 L 45.34375 -61 L 61 -61 L 61 -45.34375 L 25.007812 -45.34375 L 25.007812 -137.65625 L 61 -137.65625 L 61 -122 L 45.34375 -122 L 45.34375 -157.988281 L 142.332031 -157.988281 L 142.332031 -142.332031 L 126.675781 -142.332031 L 126.675781 -162.664062 L 142.332031 -162.664062 L 142.332031 -147.007812 L 40.667969 -147.007812 L 40.667969 -162.664062 L 56.324219 -162.664062 L 56.324219 -126.675781 L 20.332031 -126.675781 L 20.332031 -142.332031 L 35.992188 -142.332031 L 35.992188 -106.339844 L 0 -106.339844 L 0 -122 L 15.65625 -122 L 15.65625 -61 L 0 -61 L 0 -76.65625 L 35.992188 -76.65625 L 35.992188 -40.667969 L 20.332031 -40.667969 L 20.332031 -56.324219 L 56.324219 -56.324219 Z M 56.324219 -20.332031 "/></g></g><g style="fill:#ffffff;fill-opacity:1;"><g transform="translate(16.448411, 179.810506)"><path style="stroke:none" d="M 0 -20.328125 L 0 -162.671875 L 122 -162.671875 L 122 -142.34375 L 142.34375 -142.34375 L 142.34375 -101.671875 L 122 -101.671875 L 122 -81.328125 L 142.34375 -81.328125 L 142.34375 -40.671875 L 122 -40.671875 L 122 -20.328125 Z M 40.671875 -101.671875 L 101.671875 -101.671875 L 101.671875 -142.34375 L 40.671875 -142.34375 Z M 40.671875 -40.671875 L 101.671875 -40.671875 L 101.671875 -81.328125 L 40.671875 -81.328125 Z M 40.671875 -40.671875 "/></g></g><g style="fill:#ffffff;fill-opacity:1;"><g transform="translate(146.573415, 179.810506)"><path style="stroke:none" d="M 0 -20.328125 L 0 -162.671875 L 122 -162.671875 L 122 -142.34375 L 142.34375 -142.34375 L 142.34375 -81.328125 L 101.671875 -81.328125 L 101.671875 -61 L 122 -61 L 122 -40.671875 L 142.34375 -40.671875 L 142.34375 -20.328125 L 81.328125 -20.328125 L 81.328125 -40.671875 L 61 -40.671875 L 61 -61 L 40.671875 -61 L 40.671875 -20.328125 Z M 40.671875 -81.328125 L 81.328125 -81.328125 L 81.328125 -101.671875 L 101.671875 -101.671875 L 101.671875 -142.34375 L 40.671875 -142.34375 Z M 40.671875 -81.328125 "/></g></g><g style="fill:#ffffff;fill-opacity:1;"><g transform="translate(276.698419, 179.810506)"><path style="stroke:none" d="M 0 -20.328125 L 0 -122 L 20.328125 -122 L 20.328125 -142.34375 L 40.671875 -142.34375 L 40.671875 -162.671875 L 101.671875 -162.671875 L 101.671875 -142.34375 L 122 -142.34375 L 122 -122 L 142.34375 -122 L 142.34375 -20.328125 L 101.671875 -20.328125 L 101.671875 -61 L 40.671875 -61 L 40.671875 -20.328125 Z M 40.671875 -81.328125 L 101.671875 -81.328125 L 101.671875 -122 L 81.328125 -122 L 81.328125 -142.34375 L 61 -142.34375 L 61 -122 L 40.671875 -122 Z M 40.671875 -81.328125 "/></g></g><g style="fill:#ffffff;fill-opacity:1;"><g transform="translate(406.823423, 179.810506)"><path style="stroke:none" d="M 40.671875 -20.328125 L 40.671875 -40.671875 L 20.328125 -40.671875 L 20.328125 -61 L 0 -61 L 0 -122 L 20.328125 -122 L 20.328125 -142.34375 L 40.671875 -142.34375 L 40.671875 -162.671875 L 142.34375 -162.671875 L 142.34375 -142.34375 L 61 -142.34375 L 61 -122 L 40.671875 -122 L 40.671875 -61 L 61 -61 L 61 -40.671875 L 101.671875 -40.671875 L 101.671875 -81.328125 L 81.328125 -81.328125 L 81.328125 -101.671875 L 142.34375 -101.671875 L 142.34375 -20.328125 Z M 40.671875 -20.328125 "/></g></g></g></g><g clip-rule="nonzero" clip-path="url(#bf39770b68)"><g transform="matrix(1,0,0,1,805,39)"><g id="f50b628fc1" clip-path="url(#4c3b946732)"><g style="fill:#2a2d74;fill-opacity:1;"><g transform="translate(17.823534, 179.65278)"><path style="stroke:none" d="M -15.65625 -20.332031 L -15.65625 -178.320312 L 117.324219 -178.320312 L 117.324219 -142.332031 L 101.664062 -142.332031 L 101.664062 -157.988281 L 137.65625 -157.988281 L 137.65625 -122 L 122 -122 L 122 -137.65625 L 157.988281 -137.65625 L 157.988281 -45.34375 L 122 -45.34375 L 122 -61 L 137.65625 -61 L 137.65625 -25.007812 L 101.664062 -25.007812 L 101.664062 -40.667969 L 117.324219 -40.667969 L 117.324219 -4.675781 L -15.65625 -4.675781 Z M 15.65625 -20.332031 L 0 -20.332031 L 0 -35.992188 L 101.664062 -35.992188 L 101.664062 -20.332031 L 86.007812 -20.332031 L 86.007812 -56.324219 L 122 -56.324219 L 122 -40.667969 L 106.339844 -40.667969 L 106.339844 -76.65625 L 142.332031 -76.65625 L 142.332031 -61 L 126.675781 -61 L 126.675781 -122 L 142.332031 -122 L 142.332031 -106.339844 L 106.339844 -106.339844 L 106.339844 -142.332031 L 122 -142.332031 L 122 -126.675781 L 86.007812 -126.675781 L 86.007812 -162.664062 L 101.664062 -162.664062 L 101.664062 -147.007812 L 0 -147.007812 L 0 -162.664062 L 15.65625 -162.664062 Z M 40.667969 -56.324219 L 81.332031 -56.324219 L 81.332031 -40.667969 L 65.675781 -40.667969 L 65.675781 -76.65625 L 101.664062 -76.65625 L 101.664062 -61 L 86.007812 -61 L 86.007812 -122 L 101.664062 -122 L 101.664062 -106.339844 L 65.675781 -106.339844 L 65.675781 -142.332031 L 81.332031 -142.332031 L 81.332031 -126.675781 L 40.667969 -126.675781 L 40.667969 -142.332031 L 56.324219 -142.332031 L 56.324219 -40.667969 L 40.667969 -40.667969 Z M 25.007812 -25.007812 L 25.007812 -157.988281 L 96.988281 -157.988281 L 96.988281 -122 L 81.332031 -122 L 81.332031 -137.65625 L 117.324219 -137.65625 L 117.324219 -45.34375 L 81.332031 -45.34375 L 81.332031 -61 L 96.988281 -61 L 96.988281 -25.007812 Z M 25.007812 -25.007812 "/></g></g><g style="fill:#2a2d74;fill-opacity:1;"><g transform="translate(147.948537, 179.65278)"><path style="stroke:none" d="M 4.675781 -20.332031 L 4.675781 -40.667969 L 20.332031 -40.667969 L 20.332031 -25.007812 L -15.65625 -25.007812 L -15.65625 -157.988281 L 20.332031 -157.988281 L 20.332031 -142.332031 L 4.675781 -142.332031 L 4.675781 -178.320312 L 137.65625 -178.320312 L 137.65625 -142.332031 L 122 -142.332031 L 122 -157.988281 L 157.988281 -157.988281 L 157.988281 -25.007812 L 122 -25.007812 L 122 -40.667969 L 137.65625 -40.667969 L 137.65625 -4.675781 L 4.675781 -4.675781 Z M 35.992188 -20.332031 L 20.332031 -20.332031 L 20.332031 -35.992188 L 122 -35.992188 L 122 -20.332031 L 106.339844 -20.332031 L 106.339844 -56.324219 L 142.332031 -56.324219 L 142.332031 -40.667969 L 126.675781 -40.667969 L 126.675781 -142.332031 L 142.332031 -142.332031 L 142.332031 -126.675781 L 106.339844 -126.675781 L 106.339844 -162.664062 L 122 -162.664062 L 122 -147.007812 L 20.332031 -147.007812 L 20.332031 -162.664062 L 35.992188 -162.664062 L 35.992188 -126.675781 L 0 -126.675781 L 0 -142.332031 L 15.65625 -142.332031 L 15.65625 -40.667969 L 0 -40.667969 L 0 -56.324219 L 35.992188 -56.324219 Z M 40.667969 -56.324219 L 101.664062 -56.324219 L 101.664062 -40.667969 L 86.007812 -40.667969 L 86.007812 -142.332031 L 101.664062 -142.332031 L 101.664062 -126.675781 L 40.667969 -126.675781 L 40.667969 -142.332031 L 56.324219 -142.332031 L 56.324219 -40.667969 L 40.667969 -40.667969 Z M 25.007812 -25.007812 L 25.007812 -157.988281 L 117.324219 -157.988281 L 117.324219 -25.007812 Z M 25.007812 -25.007812 "/></g></g><g style="fill:#2a2d74;fill-opacity:1;"><g transform="translate(278.073541, 179.65278)"><path style="stroke:none" d="M 25.007812 -20.332031 L 25.007812 -40.667969 L 40.667969 -40.667969 L 40.667969 -25.007812 L 4.675781 -25.007812 L 4.675781 -61 L 20.332031 -61 L 20.332031 -45.34375 L -15.65625 -45.34375 L -15.65625 -137.65625 L 20.332031 -137.65625 L 20.332031 -122 L 4.675781 -122 L 4.675781 -157.988281 L 40.667969 -157.988281 L 40.667969 -142.332031 L 25.007812 -142.332031 L 25.007812 -178.320312 L 137.65625 -178.320312 L 137.65625 -142.332031 L 122 -142.332031 L 122 -157.988281 L 157.988281 -157.988281 L 157.988281 -106.339844 L 86.007812 -106.339844 L 86.007812 -142.332031 L 101.664062 -142.332031 L 101.664062 -126.675781 L 61 -126.675781 L 61 -142.332031 L 76.65625 -142.332031 L 76.65625 -106.339844 L 40.667969 -106.339844 L 40.667969 -122 L 56.324219 -122 L 56.324219 -61 L 40.667969 -61 L 40.667969 -76.65625 L 76.65625 -76.65625 L 76.65625 -40.667969 L 61 -40.667969 L 61 -56.324219 L 101.664062 -56.324219 L 101.664062 -40.667969 L 86.007812 -40.667969 L 86.007812 -76.65625 L 157.988281 -76.65625 L 157.988281 -25.007812 L 122 -25.007812 L 122 -40.667969 L 137.65625 -40.667969 L 137.65625 -4.675781 L 25.007812 -4.675781 Z M 56.324219 -20.332031 L 40.667969 -20.332031 L 40.667969 -35.992188 L 122 -35.992188 L 122 -20.332031 L 106.339844 -20.332031 L 106.339844 -56.324219 L 142.332031 -56.324219 L 142.332031 -40.667969 L 126.675781 -40.667969 L 126.675781 -61 L 142.332031 -61 L 142.332031 -45.34375 L 101.664062 -45.34375 L 101.664062 -61 L 117.324219 -61 L 117.324219 -25.007812 L 45.34375 -25.007812 L 45.34375 -61 L 61 -61 L 61 -45.34375 L 25.007812 -45.34375 L 25.007812 -137.65625 L 61 -137.65625 L 61 -122 L 45.34375 -122 L 45.34375 -157.988281 L 117.324219 -157.988281 L 117.324219 -122 L 101.664062 -122 L 101.664062 -137.65625 L 142.332031 -137.65625 L 142.332031 -122 L 126.675781 -122 L 126.675781 -142.332031 L 142.332031 -142.332031 L 142.332031 -126.675781 L 106.339844 -126.675781 L 106.339844 -162.664062 L 122 -162.664062 L 122 -147.007812 L 40.667969 -147.007812 L 40.667969 -162.664062 L 56.324219 -162.664062 L 56.324219 -126.675781 L 20.332031 -126.675781 L 20.332031 -142.332031 L 35.992188 -142.332031 L 35.992188 -106.339844 L 0 -106.339844 L 0 -122 L 15.65625 -122 L 15.65625 -61 L 0 -61 L 0 -76.65625 L 35.992188 -76.65625 L 35.992188 -40.667969 L 20.332031 -40.667969 L 20.332031 -56.324219 L 56.324219 -56.324219 Z M 56.324219 -20.332031 "/></g></g><g style="fill:#2a2d74;fill-opacity:1;"><g transform="translate(408.198545, 179.65278)"><path style="stroke:none" d="M 4.675781 -20.332031 L 4.675781 -40.667969 L 20.332031 -40.667969 L 20.332031 -25.007812 L -15.65625 -25.007812 L -15.65625 -76.65625 L 56.324219 -76.65625 L 56.324219 -40.667969 L 40.667969 -40.667969 L 40.667969 -56.324219 L 101.664062 -56.324219 L 101.664062 -40.667969 L 86.007812 -40.667969 L 86.007812 -81.332031 L 101.664062 -81.332031 L 101.664062 -65.675781 L 4.675781 -65.675781 L 4.675781 -101.664062 L 20.332031 -101.664062 L 20.332031 -86.007812 L -15.65625 -86.007812 L -15.65625 -157.988281 L 20.332031 -157.988281 L 20.332031 -142.332031 L 4.675781 -142.332031 L 4.675781 -178.320312 L 137.65625 -178.320312 L 137.65625 -142.332031 L 122 -142.332031 L 122 -157.988281 L 157.988281 -157.988281 L 157.988281 -106.339844 L 86.007812 -106.339844 L 86.007812 -142.332031 L 101.664062 -142.332031 L 101.664062 -126.675781 L 40.667969 -126.675781 L 40.667969 -142.332031 L 56.324219 -142.332031 L 56.324219 -101.664062 L 40.667969 -101.664062 L 40.667969 -117.324219 L 137.65625 -117.324219 L 137.65625 -81.332031 L 122 -81.332031 L 122 -96.988281 L 157.988281 -96.988281 L 157.988281 -25.007812 L 122 -25.007812 L 122 -40.667969 L 137.65625 -40.667969 L 137.65625 -4.675781 L 4.675781 -4.675781 Z M 35.992188 -20.332031 L 20.332031 -20.332031 L 20.332031 -35.992188 L 122 -35.992188 L 122 -20.332031 L 106.339844 -20.332031 L 106.339844 -56.324219 L 142.332031 -56.324219 L 142.332031 -40.667969 L 126.675781 -40.667969 L 126.675781 -81.332031 L 142.332031 -81.332031 L 142.332031 -65.675781 L 106.339844 -65.675781 L 106.339844 -101.664062 L 122 -101.664062 L 122 -86.007812 L 25.007812 -86.007812 L 25.007812 -157.988281 L 117.324219 -157.988281 L 117.324219 -122 L 101.664062 -122 L 101.664062 -137.65625 L 142.332031 -137.65625 L 142.332031 -122 L 126.675781 -122 L 126.675781 -142.332031 L 142.332031 -142.332031 L 142.332031 -126.675781 L 106.339844 -126.675781 L 106.339844 -162.664062 L 122 -162.664062 L 122 -147.007812 L 20.332031 -147.007812 L 20.332031 -162.664062 L 35.992188 -162.664062 L 35.992188 -126.675781 L 0 -126.675781 L 0 -142.332031 L 15.65625 -142.332031 L 15.65625 -101.664062 L 0 -101.664062 L 0 -117.324219 L 35.992188 -117.324219 L 35.992188 -81.332031 L 20.332031 -81.332031 L 20.332031 -96.988281 L 117.324219 -96.988281 L 117.324219 -25.007812 L 25.007812 -25.007812 L 25.007812 -61 L 40.667969 -61 L 40.667969 -45.34375 L 0 -45.34375 L 0 -61 L 15.65625 -61 L 15.65625 -40.667969 L 0 -40.667969 L 0 -56.324219 L 35.992188 -56.324219 Z M 35.992188 -20.332031 "/></g></g><g style="fill:#2a2d74;fill-opacity:1;"><g transform="translate(17.823534, 179.65278)"><path style="stroke:none" d="M 0 -20.328125 L 0 -162.671875 L 101.671875 -162.671875 L 101.671875 -142.34375 L 122 -142.34375 L 122 -122 L 142.34375 -122 L 142.34375 -61 L 122 -61 L 122 -40.671875 L 101.671875 -40.671875 L 101.671875 -20.328125 Z M 40.671875 -40.671875 L 81.328125 -40.671875 L 81.328125 -61 L 101.671875 -61 L 101.671875 -122 L 81.328125 -122 L 81.328125 -142.34375 L 40.671875 -142.34375 Z M 40.671875 -40.671875 "/></g></g><g style="fill:#2a2d74;fill-opacity:1;"><g transform="translate(147.948537, 179.65278)"><path style="stroke:none" d="M 20.328125 -20.328125 L 20.328125 -40.671875 L 0 -40.671875 L 0 -142.34375 L 20.328125 -142.34375 L 20.328125 -162.671875 L 122 -162.671875 L 122 -142.34375 L 142.34375 -142.34375 L 142.34375 -40.671875 L 122 -40.671875 L 122 -20.328125 Z M 40.671875 -40.671875 L 101.671875 -40.671875 L 101.671875 -142.34375 L 40.671875 -142.34375 Z M 40.671875 -40.671875 "/></g></g><g style="fill:#2a2d74;fill-opacity:1;"><g transform="translate(278.073541, 179.65278)"><path style="stroke:none" d="M 40.671875 -20.328125 L 40.671875 -40.671875 L 20.328125 -40.671875 L 20.328125 -61 L 0 -61 L 0 -122 L 20.328125 -122 L 20.328125 -142.34375 L 40.671875 -142.34375 L 40.671875 -162.671875 L 122 -162.671875 L 122 -142.34375 L 142.34375 -142.34375 L 142.34375 -122 L 101.671875 -122 L 101.671875 -142.34375 L 61 -142.34375 L 61 -122 L 40.671875 -122 L 40.671875 -61 L 61 -61 L 61 -40.671875 L 101.671875 -40.671875 L 101.671875 -61 L 142.34375 -61 L 142.34375 -40.671875 L 122 -40.671875 L 122 -20.328125 Z M 40.671875 -20.328125 "/></g></g><g style="fill:#2a2d74;fill-opacity:1;"><g transform="translate(408.198545, 179.65278)"><path style="stroke:none" d="M 20.328125 -20.328125 L 20.328125 -40.671875 L 0 -40.671875 L 0 -61 L 40.671875 -61 L 40.671875 -40.671875 L 101.671875 -40.671875 L 101.671875 -81.328125 L 20.328125 -81.328125 L 20.328125 -101.671875 L 0 -101.671875 L 0 -142.34375 L 20.328125 -142.34375 L 20.328125 -162.671875 L 122 -162.671875 L 122 -142.34375 L 142.34375 -142.34375 L 142.34375 -122 L 101.671875 -122 L 101.671875 -142.34375 L 40.671875 -142.34375 L 40.671875 -101.671875 L 122 -101.671875 L 122 -81.328125 L 142.34375 -81.328125 L 142.34375 -40.671875 L 122 -40.671875 L 122 -20.328125 Z M 20.328125 -20.328125 "/></g></g></g></g></g><g transform="matrix(1,0,0,1,789,13)"><g id="022c1ee47e" clip-path="url(#c9c1172dfe)"><g style="fill:#2a2d74;fill-opacity:1;"><g transform="translate(17.584745, 179.810506)"><path style="stroke:none" d="M -15.65625 -20.332031 L -15.65625 -178.320312 L 117.324219 -178.320312 L 117.324219 -142.332031 L 101.664062 -142.332031 L 101.664062 -157.988281 L 137.65625 -157.988281 L 137.65625 -122 L 122 -122 L 122 -137.65625 L 157.988281 -137.65625 L 157.988281 -45.34375 L 122 -45.34375 L 122 -61 L 137.65625 -61 L 137.65625 -25.007812 L 101.664062 -25.007812 L 101.664062 -40.667969 L 117.324219 -40.667969 L 117.324219 -4.675781 L -15.65625 -4.675781 Z M 15.65625 -20.332031 L 0 -20.332031 L 0 -35.992188 L 101.664062 -35.992188 L 101.664062 -20.332031 L 86.007812 -20.332031 L 86.007812 -56.324219 L 122 -56.324219 L 122 -40.667969 L 106.339844 -40.667969 L 106.339844 -76.65625 L 142.332031 -76.65625 L 142.332031 -61 L 126.675781 -61 L 126.675781 -122 L 142.332031 -122 L 142.332031 -106.339844 L 106.339844 -106.339844 L 106.339844 -142.332031 L 122 -142.332031 L 122 -126.675781 L 86.007812 -126.675781 L 86.007812 -162.664062 L 101.664062 -162.664062 L 101.664062 -147.007812 L 0 -147.007812 L 0 -162.664062 L 15.65625 -162.664062 Z M 40.667969 -56.324219 L 81.332031 -56.324219 L 81.332031 -40.667969 L 65.675781 -40.667969 L 65.675781 -76.65625 L 101.664062 -76.65625 L 101.664062 -61 L 86.007812 -61 L 86.007812 -122 L 101.664062 -122 L 101.664062 -106.339844 L 65.675781 -106.339844 L 65.675781 -142.332031 L 81.332031 -142.332031 L 81.332031 -126.675781 L 40.667969 -126.675781 L 40.667969 -142.332031 L 56.324219 -142.332031 L 56.324219 -40.667969 L 40.667969 -40.667969 Z M 25.007812 -25.007812 L 25.007812 -157.988281 L 96.988281 -157.988281 L 96.988281 -122 L 81.332031 -122 L 81.332031 -137.65625 L 117.324219 -137.65625 L 117.324219 -45.34375 L 81.332031 -45.34375 L 81.332031 -61 L 96.988281 -61 L 96.988281 -25.007812 Z M 25.007812 -25.007812 "/></g></g><g style="fill:#2a2d74;fill-opacity:1;"><g transform="translate(147.709749, 179.810506)"><path style="stroke:none" d="M 4.675781 -20.332031 L 4.675781 -40.667969 L 20.332031 -40.667969 L 20.332031 -25.007812 L -15.65625 -25.007812 L -15.65625 -157.988281 L 20.332031 -157.988281 L 20.332031 -142.332031 L 4.675781 -142.332031 L 4.675781 -178.320312 L 137.65625 -178.320312 L 137.65625 -142.332031 L 122 -142.332031 L 122 -157.988281 L 157.988281 -157.988281 L 157.988281 -25.007812 L 122 -25.007812 L 122 -40.667969 L 137.65625 -40.667969 L 137.65625 -4.675781 L 4.675781 -4.675781 Z M 35.992188 -20.332031 L 20.332031 -20.332031 L 20.332031 -35.992188 L 122 -35.992188 L 122 -20.332031 L 106.339844 -20.332031 L 106.339844 -56.324219 L 142.332031 -56.324219 L 142.332031 -40.667969 L 126.675781 -40.667969 L 126.675781 -142.332031 L 142.332031 -142.332031 L 142.332031 -126.675781 L 106.339844 -126.675781 L 106.339844 -162.664062 L 122 -162.664062 L 122 -147.007812 L 20.332031 -147.007812 L 20.332031 -162.664062 L 35.992188 -162.664062 L 35.992188 -126.675781 L 0 -126.675781 L 0 -142.332031 L 15.65625 -142.332031 L 15.65625 -40.667969 L 0 -40.667969 L 0 -56.324219 L 35.992188 -56.324219 Z M 40.667969 -56.324219 L 101.664062 -56.324219 L 101.664062 -40.667969 L 86.007812 -40.667969 L 86.007812 -142.332031 L 101.664062 -142.332031 L 101.664062 -126.675781 L 40.667969 -126.675781 L 40.667969 -142.332031 L 56.324219 -142.332031 L 56.324219 -40.667969 L 40.667969 -40.667969 Z M 25.007812 -25.007812 L 25.007812 -157.988281 L 117.324219 -157.988281 L 117.324219 -25.007812 Z M 25.007812 -25.007812 "/></g></g><g style="fill:#2a2d74;fill-opacity:1;"><g transform="translate(277.834753, 179.810506)"><path style="stroke:none" d="M 25.007812 -20.332031 L 25.007812 -40.667969 L 40.667969 -40.667969 L 40.667969 -25.007812 L 4.675781 -25.007812 L 4.675781 -61 L 20.332031 -61 L 20.332031 -45.34375 L -15.65625 -45.34375 L -15.65625 -137.65625 L 20.332031 -137.65625 L 20.332031 -122 L 4.675781 -122 L 4.675781 -157.988281 L 40.667969 -157.988281 L 40.667969 -142.332031 L 25.007812 -142.332031 L 25.007812 -178.320312 L 137.65625 -178.320312 L 137.65625 -142.332031 L 122 -142.332031 L 122 -157.988281 L 157.988281 -157.988281 L 157.988281 -106.339844 L 86.007812 -106.339844 L 86.007812 -142.332031 L 101.664062 -142.332031 L 101.664062 -126.675781 L 61 -126.675781 L 61 -142.332031 L 76.65625 -142.332031 L 76.65625 -106.339844 L 40.667969 -106.339844 L 40.667969 -122 L 56.324219 -122 L 56.324219 -61 L 40.667969 -61 L 40.667969 -76.65625 L 76.65625 -76.65625 L 76.65625 -40.667969 L 61 -40.667969 L 61 -56.324219 L 101.664062 -56.324219 L 101.664062 -40.667969 L 86.007812 -40.667969 L 86.007812 -76.65625 L 157.988281 -76.65625 L 157.988281 -25.007812 L 122 -25.007812 L 122 -40.667969 L 137.65625 -40.667969 L 137.65625 -4.675781 L 25.007812 -4.675781 Z M 56.324219 -20.332031 L 40.667969 -20.332031 L 40.667969 -35.992188 L 122 -35.992188 L 122 -20.332031 L 106.339844 -20.332031 L 106.339844 -56.324219 L 142.332031 -56.324219 L 142.332031 -40.667969 L 126.675781 -40.667969 L 126.675781 -61 L 142.332031 -61 L 142.332031 -45.34375 L 101.664062 -45.34375 L 101.664062 -61 L 117.324219 -61 L 117.324219 -25.007812 L 45.34375 -25.007812 L 45.34375 -61 L 61 -61 L 61 -45.34375 L 25.007812 -45.34375 L 25.007812 -137.65625 L 61 -137.65625 L 61 -122 L 45.34375 -122 L 45.34375 -157.988281 L 117.324219 -157.988281 L 117.324219 -122 L 101.664062 -122 L 101.664062 -137.65625 L 142.332031 -137.65625 L 142.332031 -122 L 126.675781 -122 L 126.675781 -142.332031 L 142.332031 -142.332031 L 142.332031 -126.675781 L 106.339844 -126.675781 L 106.339844 -162.664062 L 122 -162.664062 L 122 -147.007812 L 40.667969 -147.007812 L 40.667969 -162.664062 L 56.324219 -162.664062 L 56.324219 -126.675781 L 20.332031 -126.675781 L 20.332031 -142.332031 L 35.992188 -142.332031 L 35.992188 -106.339844 L 0 -106.339844 L 0 -122 L 15.65625 -122 L 15.65625 -61 L 0 -61 L 0 -76.65625 L 35.992188 -76.65625 L 35.992188 -40.667969 L 20.332031 -40.667969 L 20.332031 -56.324219 L 56.324219 -56.324219 Z M 56.324219 -20.332031 "/></g></g><g style="fill:#2a2d74;fill-opacity:1;"><g transform="translate(407.959757, 179.810506)"><path style="stroke:none" d="M 4.675781 -20.332031 L 4.675781 -40.667969 L 20.332031 -40.667969 L 20.332031 -25.007812 L -15.65625 -25.007812 L -15.65625 -76.65625 L 56.324219 -76.65625 L 56.324219 -40.667969 L 40.667969 -40.667969 L 40.667969 -56.324219 L 101.664062 -56.324219 L 101.664062 -40.667969 L 86.007812 -40.667969 L 86.007812 -81.332031 L 101.664062 -81.332031 L 101.664062 -65.675781 L 4.675781 -65.675781 L 4.675781 -101.664062 L 20.332031 -101.664062 L 20.332031 -86.007812 L -15.65625 -86.007812 L -15.65625 -157.988281 L 20.332031 -157.988281 L 20.332031 -142.332031 L 4.675781 -142.332031 L 4.675781 -178.320312 L 137.65625 -178.320312 L 137.65625 -142.332031 L 122 -142.332031 L 122 -157.988281 L 157.988281 -157.988281 L 157.988281 -106.339844 L 86.007812 -106.339844 L 86.007812 -142.332031 L 101.664062 -142.332031 L 101.664062 -126.675781 L 40.667969 -126.675781 L 40.667969 -142.332031 L 56.324219 -142.332031 L 56.324219 -101.664062 L 40.667969 -101.664062 L 40.667969 -117.324219 L 137.65625 -117.324219 L 137.65625 -81.332031 L 122 -81.332031 L 122 -96.988281 L 157.988281 -96.988281 L 157.988281 -25.007812 L 122 -25.007812 L 122 -40.667969 L 137.65625 -40.667969 L 137.65625 -4.675781 L 4.675781 -4.675781 Z M 35.992188 -20.332031 L 20.332031 -20.332031 L 20.332031 -35.992188 L 122 -35.992188 L 122 -20.332031 L 106.339844 -20.332031 L 106.339844 -56.324219 L 142.332031 -56.324219 L 142.332031 -40.667969 L 126.675781 -40.667969 L 126.675781 -81.332031 L 142.332031 -81.332031 L 142.332031 -65.675781 L 106.339844 -65.675781 L 106.339844 -101.664062 L 122 -101.664062 L 122 -86.007812 L 25.007812 -86.007812 L 25.007812 -157.988281 L 117.324219 -157.988281 L 117.324219 -122 L 101.664062 -122 L 101.664062 -137.65625 L 142.332031 -137.65625 L 142.332031 -122 L 126.675781 -122 L 126.675781 -142.332031 L 142.332031 -142.332031 L 142.332031 -126.675781 L 106.339844 -126.675781 L 106.339844 -162.664062 L 122 -162.664062 L 122 -147.007812 L 20.332031 -147.007812 L 20.332031 -162.664062 L 35.992188 -162.664062 L 35.992188 -126.675781 L 0 -126.675781 L 0 -142.332031 L 15.65625 -142.332031 L 15.65625 -101.664062 L 0 -101.664062 L 0 -117.324219 L 35.992188 -117.324219 L 35.992188 -81.332031 L 20.332031 -81.332031 L 20.332031 -96.988281 L 117.324219 -96.988281 L 117.324219 -25.007812 L 25.007812 -25.007812 L 25.007812 -61 L 40.667969 -61 L 40.667969 -45.34375 L 0 -45.34375 L 0 -61 L 15.65625 -61 L 15.65625 -40.667969 L 0 -40.667969 L 0 -56.324219 L 35.992188 -56.324219 Z M 35.992188 -20.332031 "/></g></g><g style="fill:#ffe500;fill-opacity:1;"><g transform="translate(17.584745, 179.810506)"><path style="stroke:none" d="M 0 -20.328125 L 0 -162.671875 L 101.671875 -162.671875 L 101.671875 -142.34375 L 122 -142.34375 L 122 -122 L 142.34375 -122 L 142.34375 -61 L 122 -61 L 122 -40.671875 L 101.671875 -40.671875 L 101.671875 -20.328125 Z M 40.671875 -40.671875 L 81.328125 -40.671875 L 81.328125 -61 L 101.671875 -61 L 101.671875 -122 L 81.328125 -122 L 81.328125 -142.34375 L 40.671875 -142.34375 Z M 40.671875 -40.671875 "/></g></g><g style="fill:#ffe500;fill-opacity:1;"><g transform="translate(147.709749, 179.810506)"><path style="stroke:none" d="M 20.328125 -20.328125 L 20.328125 -40.671875 L 0 -40.671875 L 0 -142.34375 L 20.328125 -142.34375 L 20.328125 -162.671875 L 122 -162.671875 L 122 -142.34375 L 142.34375 -142.34375 L 142.34375 -40.671875 L 122 -40.671875 L 122 -20.328125 Z M 40.671875 -40.671875 L 101.671875 -40.671875 L 101.671875 -142.34375 L 40.671875 -142.34375 Z M 40.671875 -40.671875 "/></g></g><g style="fill:#ffe500;fill-opacity:1;"><g transform="translate(277.834753, 179.810506)"><path style="stroke:none" d="M 40.671875 -20.328125 L 40.671875 -40.671875 L 20.328125 -40.671875 L 20.328125 -61 L 0 -61 L 0 -122 L 20.328125 -122 L 20.328125 -142.34375 L 40.671875 -142.34375 L 40.671875 -162.671875 L 122 -162.671875 L 122 -142.34375 L 142.34375 -142.34375 L 142.34375 -122 L 101.671875 -122 L 101.671875 -142.34375 L 61 -142.34375 L 61 -122 L 40.671875 -122 L 40.671875 -61 L 61 -61 L 61 -40.671875 L 101.671875 -40.671875 L 101.671875 -61 L 142.34375 -61 L 142.34375 -40.671875 L 122 -40.671875 L 122 -20.328125 Z M 40.671875 -20.328125 "/></g></g><g style="fill:#ffe500;fill-opacity:1;"><g transform="translate(407.959757, 179.810506)"><path style="stroke:none" d="M 20.328125 -20.328125 L 20.328125 -40.671875 L 0 -40.671875 L 0 -61 L 40.671875 -61 L 40.671875 -40.671875 L 101.671875 -40.671875 L 101.671875 -81.328125 L 20.328125 -81.328125 L 20.328125 -101.671875 L 0 -101.671875 L 0 -142.34375 L 20.328125 -142.34375 L 20.328125 -162.671875 L 122 -162.671875 L 122 -142.34375 L 142.34375 -142.34375 L 142.34375 -122 L 101.671875 -122 L 101.671875 -142.34375 L 40.671875 -142.34375 L 40.671875 -101.671875 L 122 -101.671875 L 122 -81.328125 L 142.34375 -81.328125 L 142.34375 -40.671875 L 122 -40.671875 L 122 -20.328125 Z M 20.328125 -20.328125 "/></g></g></g></g><g clip-rule="nonzero" clip-path="url(#9728932473)"><g transform="matrix(1,0,0,1,0,0.000000000000056843)"><g id="d9e8798b4b" clip-path="url(#00ebf4b5ee)"><g style="fill:#2b2d74;fill-opacity:1;"><g transform="translate(2.380128, 106.15513)"><path style="stroke:none" d="M 6.65625 0 L 6.65625 -26.609375 L 19.953125 -26.609375 L 19.953125 -13.3125 L 73.1875 -13.3125 L 73.1875 0 Z M 6.65625 -66.53125 L 6.65625 -79.84375 L 19.953125 -79.84375 L 19.953125 -66.53125 Z M 19.953125 -26.609375 L 19.953125 -39.921875 L 33.265625 -39.921875 L 33.265625 -26.609375 Z M 19.953125 -79.84375 L 19.953125 -93.140625 L 59.875 -93.140625 L 59.875 -79.84375 Z M 33.265625 -39.921875 L 33.265625 -53.21875 L 59.875 -53.21875 L 59.875 -39.921875 Z M 59.875 -53.21875 L 59.875 -79.84375 L 73.1875 -79.84375 L 73.1875 -53.21875 Z M 59.875 -53.21875 "/></g></g><g style="fill:#2b2d74;fill-opacity:1;"><g transform="translate(82.202222, 106.15513)"><path style="stroke:none" d="M 59.875 -13.3125 L 59.875 0 L 19.953125 0 L 19.953125 -13.3125 Z M 6.65625 -13.3125 L 6.65625 -79.84375 L 19.953125 -79.84375 L 19.953125 -13.3125 Z M 19.953125 -79.84375 L 19.953125 -93.140625 L 59.875 -93.140625 L 59.875 -79.84375 Z M 33.265625 -39.921875 L 33.265625 -53.21875 L 46.578125 -53.21875 L 46.578125 -39.921875 Z M 59.875 -13.3125 L 59.875 -79.84375 L 73.1875 -79.84375 L 73.1875 -13.3125 Z M 59.875 -13.3125 "/></g></g><g style="fill:#2b2d74;fill-opacity:1;"><g transform="translate(2.380128, 213.368028)"><path style="stroke:none" d="M 6.65625 0 L 6.65625 -26.609375 L 19.953125 -26.609375 L 19.953125 -13.3125 L 73.1875 -13.3125 L 73.1875 0 Z M 6.65625 -66.53125 L 6.65625 -79.84375 L 19.953125 -79.84375 L 19.953125 -66.53125 Z M 19.953125 -26.609375 L 19.953125 -39.921875 L 33.265625 -39.921875 L 33.265625 -26.609375 Z M 19.953125 -79.84375 L 19.953125 -93.140625 L 59.875 -93.140625 L 59.875 -79.84375 Z M 33.265625 -39.921875 L 33.265625 -53.21875 L 59.875 -53.21875 L 59.875 -39.921875 Z M 59.875 -53.21875 L 59.875 -79.84375 L 73.1875 -79.84375 L 73.1875 -53.21875 Z M 59.875 -53.21875 "/></g></g><g style="fill:#2b2d74;fill-opacity:1;"><g transform="translate(82.202222, 213.368028)"><path style="stroke:none" d="M 6.65625 -53.21875 L 6.65625 -93.140625 L 73.1875 -93.140625 L 73.1875 -79.84375 L 19.953125 -79.84375 L 19.953125 -53.21875 Z M 6.65625 -13.3125 L 6.65625 -26.609375 L 19.953125 -26.609375 L 19.953125 -13.3125 Z M 19.953125 0 L 19.953125 -13.3125 L 59.875 -13.3125 L 59.875 0 Z M 19.953125 -39.921875 L 19.953125 -53.21875 L 59.875 -53.21875 L 59.875 -39.921875 Z M 59.875 -13.3125 L 59.875 -39.921875 L 73.1875 -39.921875 L 73.1875 -13.3125 Z M 59.875 -13.3125 "/></g></g></g></g></g></g></g></g></svg>