<svg width="1101" height="194" viewBox="0 0 1101 194" fill="none" xmlns="http://www.w3.org/2000/svg">
<mask id="mask0_118_5598" style="mask-type:luminance" maskUnits="userSpaceOnUse" x="0" y="0" width="1101" height="194">
<path d="M1101 0H0V193.917H1101V0Z" fill="white"/>
</mask>
<g mask="url(#mask0_118_5598)">
<mask id="mask1_118_5598" style="mask-type:luminance" maskUnits="userSpaceOnUse" x="156" y="31" width="456" height="145">
<path d="M611.4 31.251H156.256V175.487H611.4V31.251Z" fill="white"/>
</mask>
<g mask="url(#mask1_118_5598)">
<mask id="mask2_118_5598" style="mask-type:luminance" maskUnits="userSpaceOnUse" x="156" y="32" width="141" height="141">
<path d="M156.318 32.0518H296.485V172.281H156.318V32.0518Z" fill="white"/>
</mask>
<g mask="url(#mask2_118_5598)">
<path d="M156.752 158.916V32.3184H279.603V61.1561H267.057V48.6106H295.895V106.289H267.057V93.7438H279.603V110.036H267.057V97.4905H295.895V155.169H267.057V142.621H279.603V171.461H156.752V158.916ZM181.843 158.916H169.297V146.367H267.057V158.916H254.509V130.075H283.35V142.621H270.804V110.036H283.35V122.582H254.509V81.1951H283.35V93.7438H270.804V61.1561H283.35V73.7016H254.509V44.8639H267.057V57.4094H169.297V44.8639H181.843V158.916ZM201.885 81.1951H250.762V93.7438H238.216V61.1561H250.762V73.7016H201.885V61.1561H214.431V93.7438H201.885V81.1951ZM189.336 106.289V48.6106H263.311V106.289H189.336ZM201.885 130.075H250.762V142.621H238.216V110.036H250.762V122.582H201.885V110.036H214.431V142.621H201.885V130.075ZM189.336 155.169V97.4905H263.311V155.169H189.336Z" fill="#131549"/>
</g>
<path d="M261.023 158.916V32.3184H383.874V61.1561H371.329V48.6106H400.167V122.582H355.033V110.036H367.582V126.328H355.033V113.783H383.874V142.621H371.329V130.075H400.167V171.461H326.196V142.621H338.741V155.169H309.903V126.328H322.449V138.874H306.157V126.328H318.702V171.461H261.023V158.916ZM286.114 158.916H273.569V146.367H306.157V158.916H293.608V113.783H334.994V142.621H322.449V130.075H351.287V158.916H338.741V146.367H387.621V158.916H375.076V142.621H387.621V155.169H358.78V126.328H371.329V138.874H342.488V97.4905H387.621V110.036H375.076V61.1561H387.621V73.7016H358.78V44.8639H371.329V57.4094H273.569V44.8639H286.114V158.916ZM306.157 97.4905H338.741V110.036H326.196V81.1951H355.033V93.7438H342.488V61.1561H355.033V73.7016H306.157V61.1561H318.702V110.036H306.157V97.4905ZM293.608 122.582V48.6106H367.582V106.289H338.741V93.7438H351.287V122.582H293.608Z" fill="#131549"/>
<path d="M365.294 158.916V64.9029H394.132V77.4484H381.586V48.6106H410.427V61.1561H397.878V32.3184H471.853V61.1561H459.304V48.6106H488.145V77.4484H475.599V64.9029H504.437V171.461H446.758V126.328H459.304V138.874H410.427V126.328H422.973V171.461H365.294V158.916ZM390.385 158.916H377.839V146.367H410.427V158.916H397.878V113.783H471.853V158.916H459.304V146.367H491.892V158.916H479.346V77.4484H491.892V89.997H463.051V61.1561H475.599V73.7016H446.758V44.8639H459.304V57.4094H410.427V44.8639H422.973V73.7016H394.132V61.1561H406.68V89.997H377.839V77.4484H390.385V158.916ZM410.427 97.4905H459.304V110.036H446.758V77.4484H459.304V89.997H430.466V61.1561H443.012V73.7016H426.719V61.1561H439.265V89.997H410.427V77.4484H422.973V110.036H410.427V97.4905ZM397.878 122.582V64.9029H426.719V77.4484H414.174V48.6106H455.557V77.4484H443.012V64.9029H471.853V122.582H397.878Z" fill="#131549"/>
<path d="M502.148 158.916V142.621H514.697V155.169H485.856V126.328H498.401V138.874H469.563V64.9029H498.401V77.4484H485.856V48.6106H514.697V61.1561H502.148V32.3184H608.707V73.7016H530.989V61.1561H543.534V89.997H514.697V77.4484H527.242V126.328H514.697V113.783H543.534V142.621H530.989V130.075H563.573V142.621H551.028V110.036H563.573V122.582H534.736V81.1951H608.707V171.461H502.148V158.916ZM527.242 158.916H514.697V146.367H596.161V158.916H583.616V93.7438H596.161V106.289H547.281V93.7438H559.827V110.036H547.281V97.4905H576.122V155.169H518.443V126.328H530.989V138.874H502.148V64.9029H530.989V77.4484H518.443V48.6106H596.161V61.1561H583.616V44.8639H596.161V57.4094H514.697V44.8639H527.242V73.7016H498.401V61.1561H510.95V89.997H482.109V77.4484H494.654V126.328H482.109V113.783H510.95V142.621H498.401V130.075H527.242V158.916Z" fill="#131549"/>
<path d="M169.298 158.919V44.8574H267.058V61.1466H283.359V93.7373H267.058V110.039H283.359V142.617H267.058V158.919H169.298ZM201.889 93.7373H250.769V61.1466H201.889V93.7373ZM201.889 142.617H250.769V110.039H201.889V142.617Z" fill="#131549"/>
<path d="M273.568 158.919V44.8574H371.328V61.1466H387.63V110.039H355.039V126.328H371.328V142.617H387.63V158.919H338.737V142.617H322.448V126.328H306.159V158.919H273.568ZM306.159 110.039H338.737V93.7373H355.039V61.1466H306.159V110.039Z" fill="#131549"/>
<path d="M377.839 158.919V77.4482H394.128V61.1466H410.43V44.8574H459.31V61.1466H475.599V77.4482H491.9V158.919H459.31V126.328H410.43V158.919H377.839ZM410.43 110.039H459.31V77.4482H443.008V61.1466H426.719V77.4482H410.43V110.039Z" fill="#131549"/>
<path d="M514.7 158.919V142.617H498.399V126.328H482.109V77.4482H498.399V61.1466H514.7V44.8574H596.171V61.1466H530.989V77.4482H514.7V126.328H530.989V142.617H563.58V110.039H547.278V93.7373H596.171V158.919H514.7Z" fill="#131549"/>
</g>
<mask id="mask3_118_5598" style="mask-type:luminance" maskUnits="userSpaceOnUse" x="146" y="10" width="457" height="145">
<path d="M602.585 10.416H146.64V154.652H602.585V10.416Z" fill="white"/>
</mask>
<g mask="url(#mask3_118_5598)">
<mask id="mask4_118_5598" style="mask-type:luminance" maskUnits="userSpaceOnUse" x="146" y="11" width="141" height="141">
<path d="M146.896 11.2178H286.869V151.447H146.896V11.2178Z" fill="white"/>
</mask>
<g mask="url(#mask4_118_5598)">
<path d="M147.274 138.208V11.6104H270.125V40.4481H257.58V27.9026H286.418V85.5813H257.58V73.0358H270.125V89.328H257.58V76.7825H286.418V134.461H257.58V121.913H270.125V150.753H147.274V138.208ZM172.365 138.208H159.82V125.659H257.58V138.208H245.031V109.367H273.872V121.913H261.327V89.328H273.872V101.874H245.031V60.4871H273.872V73.0358H261.327V40.4481H273.872V52.9936H245.031V24.1559H257.58V36.7014H159.82V24.1559H172.365V138.208ZM192.408 60.4871H241.284V73.0358H228.739V40.4481H241.284V52.9936H192.408V40.4481H204.953V73.0358H192.408V60.4871ZM179.859 85.5813V27.9026H253.833V85.5813H179.859ZM192.408 109.367H241.284V121.913H228.739V89.328H241.284V101.874H192.408V89.328H204.953V121.913H192.408V109.367ZM179.859 134.461V76.7825H253.833V134.461H179.859Z" fill="#2B2D74"/>
</g>
<path d="M251.545 138.208V11.6104H374.396V40.4481H361.85V27.9026H390.688V101.874H345.555V89.328H358.104V105.62H345.555V93.0748H374.396V121.913H361.85V109.367H390.688V150.753H316.717V121.913H329.263V134.461H300.425V105.62H312.97V118.166H296.678V105.62H309.224V150.753H251.545V138.208ZM276.636 138.208H264.09V125.659H296.678V138.208H284.129V93.0748H325.516V121.913H312.97V109.367H341.808V138.208H329.263V125.659H378.143V138.208H365.597V121.913H378.143V134.461H349.302V105.62H361.85V118.166H333.009V76.7825H378.143V89.328H365.597V40.4481H378.143V52.9936H349.302V24.1559H361.85V36.7014H264.09V24.1559H276.636V138.208ZM296.678 76.7825H329.263V89.328H316.717V60.4871H345.555V73.0358H333.009V40.4481H345.555V52.9936H296.678V40.4481H309.224V89.328H296.678V76.7825ZM284.129 101.874V27.9026H358.104V85.5813H329.263V73.0358H341.808V101.874H284.129Z" fill="#2B2D74"/>
<path d="M355.815 138.208V44.1949H384.653V56.7404H372.108V27.9026H400.949V40.4481H388.4V11.6104H462.374V40.4481H449.825V27.9026H478.666V56.7404H466.121V44.1949H494.959V150.753H437.28V105.62H449.825V118.166H400.949V105.62H413.494V150.753H355.815V138.208ZM380.906 138.208H368.361V125.659H400.949V138.208H388.4V93.0748H462.374V138.208H449.825V125.659H482.413V138.208H469.868V56.7404H482.413V69.289H453.572V40.4481H466.121V52.9936H437.28V24.1559H449.825V36.7014H400.949V24.1559H413.494V52.9936H384.653V40.4481H397.202V69.289H368.361V56.7404H380.906V138.208ZM400.949 76.7825H449.825V89.328H437.28V56.7404H449.825V69.289H420.988V40.4481H433.533V52.9936H417.241V40.4481H429.786V69.289H400.949V56.7404H413.494V89.328H400.949V76.7825ZM388.4 101.874V44.1949H417.241V56.7404H404.695V27.9026H446.079V56.7404H433.533V44.1949H462.374V101.874H388.4Z" fill="#2B2D74"/>
<path d="M492.67 138.208V121.913H505.219V134.461H476.378V105.62H488.924V118.166H460.086V44.1949H488.924V56.7404H476.378V27.9026H505.219V40.4481H492.67V11.6104H599.229V52.9936H521.511V40.4481H534.057V69.289H505.219V56.7404H517.765V105.62H505.219V93.0748H534.057V121.913H521.511V109.367H554.096V121.913H541.55V89.328H554.096V101.874H525.258V60.4871H599.229V150.753H492.67V138.208ZM517.765 138.208H505.219V125.659H586.684V138.208H574.138V73.0358H586.684V85.5813H537.804V73.0358H550.349V89.328H537.804V76.7825H566.645V134.461H508.966V105.62H521.511V118.166H492.67V44.1949H521.511V56.7404H508.966V27.9026H586.684V40.4481H574.138V24.1559H586.684V36.7014H505.219V24.1559H517.765V52.9936H488.924V40.4481H501.472V69.289H472.631V56.7404H485.177V105.62H472.631V93.0748H501.472V121.913H488.924V109.367H517.765V138.208Z" fill="#2B2D74"/>
<path d="M159.819 138.211V24.1494H257.579V40.4385H273.881V73.0293H257.579V89.331H273.881V121.909H257.579V138.211H159.819ZM192.41 73.0293H241.29V40.4385H192.41V73.0293ZM192.41 121.909H241.29V89.331H192.41V121.909Z" fill="white"/>
<path d="M264.09 138.211V24.1494H361.85V40.4385H378.151V89.331H345.561V105.62H361.85V121.909H378.151V138.211H329.259V121.909H312.97V105.62H296.681V138.211H264.09ZM296.681 89.331H329.259V73.0293H345.561V40.4385H296.681V89.331Z" fill="white"/>
<path d="M368.36 138.211V56.7402H384.649V40.4385H400.951V24.1494H449.831V40.4385H466.12V56.7402H482.422V138.211H449.831V105.62H400.951V138.211H368.36ZM400.951 89.331H449.831V56.7402H433.529V40.4385H417.24V56.7402H400.951V89.331Z" fill="white"/>
<path d="M505.222 138.211V121.909H488.92V105.62H472.631V56.7402H488.92V40.4385H505.222V24.1494H586.692V40.4385H521.511V56.7402H505.222V105.62H521.511V121.909H554.102V89.331H537.8V73.0293H586.692V138.211H505.222Z" fill="white"/>
</g>
<mask id="mask5_118_5598" style="mask-type:luminance" maskUnits="userSpaceOnUse" x="645" y="31" width="456" height="145">
<path d="M645.055 31.251H1100.77V175.487H645.055V31.251Z" fill="white"/>
</mask>
<g mask="url(#mask5_118_5598)">
<mask id="mask6_118_5598" style="mask-type:luminance" maskUnits="userSpaceOnUse" x="645" y="31" width="456" height="145">
<path d="M1101 31.251H645.055V175.487H1101V31.251Z" fill="white"/>
</mask>
<g mask="url(#mask6_118_5598)">
<path d="M646.792 158.916V32.3184H753.351V61.1561H740.802V48.6106H769.643V77.4484H757.097V64.9029H785.935V138.874H757.097V126.328H769.643V155.169H740.802V142.621H753.351V171.461H646.792V158.916ZM671.883 158.916H659.338V146.367H740.802V158.916H728.256V130.075H757.097V142.621H744.549V113.783H773.39V126.328H760.844V77.4484H773.39V89.997H744.549V61.1561H757.097V73.7016H728.256V44.8639H740.802V57.4094H659.338V44.8639H671.883V158.916ZM691.925 130.075H724.51V142.621H711.964V113.783H740.802V126.328H728.256V77.4484H740.802V89.997H711.964V61.1561H724.51V73.7016H691.925V61.1561H704.471V142.621H691.925V130.075ZM679.377 155.169V48.6106H737.055V77.4484H724.51V64.9029H753.351V138.874H724.51V126.328H737.055V155.169H679.377Z" fill="#131549"/>
<path d="M767.355 158.916V142.621H779.9V155.169H751.062V48.6106H779.9V61.1561H767.355V32.3184H873.913V61.1561H861.368V48.6106H890.206V155.169H861.368V142.621H873.913V171.461H767.355V158.916ZM792.449 158.916H779.9V146.367H861.368V158.916H848.819V130.075H877.66V142.621H865.115V61.1561H877.66V73.7016H848.819V44.8639H861.368V57.4094H779.9V44.8639H792.449V73.7016H763.608V61.1561H776.154V142.621H763.608V130.075H792.449V158.916ZM796.196 130.075H845.072V142.621H832.527V61.1561H845.072V73.7016H796.196V61.1561H808.741V142.621H796.196V130.075ZM783.647 155.169V48.6106H857.621V155.169H783.647Z" fill="#131549"/>
<path d="M887.918 158.916V142.621H900.466V155.169H871.625V126.328H884.171V138.874H855.333V64.9029H884.171V77.4484H871.625V48.6106H900.466V61.1561H887.918V32.3184H978.184V61.1561H965.638V48.6106H994.476V89.997H936.797V61.1561H949.343V73.7016H916.758V61.1561H929.304V89.997H900.466V77.4484H913.012V126.328H900.466V113.783H929.304V142.621H916.758V130.075H949.343V142.621H936.797V113.783H994.476V155.169H965.638V142.621H978.184V171.461H887.918V158.916ZM913.012 158.916H900.466V146.367H965.638V158.916H953.09V130.075H981.931V142.621H969.385V126.328H981.931V138.874H949.343V126.328H961.892V155.169H904.213V126.328H916.758V138.874H887.918V64.9029H916.758V77.4484H904.213V48.6106H961.892V77.4484H949.343V64.9029H981.931V77.4484H969.385V61.1561H981.931V73.7016H953.09V44.8639H965.638V57.4094H900.466V44.8639H913.012V73.7016H884.171V61.1561H896.719V89.997H867.879V77.4484H880.424V126.328H867.879V113.783H896.719V142.621H884.171V130.075H913.012V158.916Z" fill="#131549"/>
<path d="M975.894 158.916V142.621H988.439V155.169H959.602V113.783H1017.28V142.621H1004.73V130.075H1053.61V142.621H1041.07V110.036H1053.61V122.582H975.894V93.7438H988.439V106.289H959.602V48.6106H988.439V61.1561H975.894V32.3184H1082.45V61.1561H1069.91V48.6106H1098.74V89.997H1041.07V61.1561H1053.61V73.7016H1004.73V61.1561H1017.28V93.7438H1004.73V81.1951H1082.45V110.036H1069.91V97.4905H1098.74V155.169H1069.91V142.621H1082.45V171.461H975.894V158.916ZM1000.99 158.916H988.439V146.367H1069.91V158.916H1057.36V130.075H1086.2V142.621H1073.65V110.036H1086.2V122.582H1057.36V93.7438H1069.91V106.289H992.186V48.6106H1066.16V77.4484H1053.61V64.9029H1086.2V77.4484H1073.65V61.1561H1086.2V73.7016H1057.36V44.8639H1069.91V57.4094H988.439V44.8639H1000.99V73.7016H972.147V61.1561H984.693V93.7438H972.147V81.1951H1000.99V110.036H988.439V97.4905H1066.16V155.169H992.186V126.328H1004.73V138.874H972.147V126.328H984.693V142.621H972.147V130.075H1000.99V158.916Z" fill="#131549"/>
<path d="M659.337 158.919V44.8574H740.808V61.1466H757.097V77.4482H773.398V126.328H757.097V142.617H740.808V158.919H659.337ZM691.928 142.617H724.506V126.328H740.808V77.4482H724.506V61.1466H691.928V142.617Z" fill="#131549"/>
<path d="M779.897 158.919V142.617H763.607V61.1466H779.897V44.8574H861.367V61.1466H877.669V142.617H861.367V158.919H779.897ZM796.198 142.617H845.078V61.1466H796.198V142.617Z" fill="#131549"/>
<path d="M900.469 158.919V142.617H884.167V126.328H867.878V77.4482H884.167V61.1466H900.469V44.8574H965.638V61.1466H981.939V77.4482H949.349V61.1466H916.758V77.4482H900.469V126.328H916.758V142.617H949.349V126.328H981.939V142.617H965.638V158.919H900.469Z" fill="#131549"/>
<path d="M988.438 158.919V142.617H972.148V126.328H1004.74V142.617H1053.62V110.039H988.438V93.7373H972.148V61.1466H988.438V44.8574H1069.91V61.1466H1086.21V77.4482H1053.62V61.1466H1004.74V93.7373H1069.91V110.039H1086.21V142.617H1069.91V158.919H988.438Z" fill="#131549"/>
</g>
</g>
<mask id="mask7_118_5598" style="mask-type:luminance" maskUnits="userSpaceOnUse" x="632" y="10" width="457" height="145">
<path d="M1088.18 10.416H632.233V154.652H1088.18V10.416Z" fill="white"/>
</mask>
<g mask="url(#mask7_118_5598)">
<path d="M633.779 138.208V11.6104H740.338V40.4481H727.789V27.9026H756.63V56.7404H744.085V44.1949H772.922V118.166H744.085V105.62H756.63V134.461H727.789V121.913H740.338V150.753H633.779V138.208ZM658.87 138.208H646.325V125.659H727.789V138.208H715.244V109.367H744.085V121.913H731.536V93.0748H760.377V105.62H747.831V56.7404H760.377V69.289H731.536V40.4481H744.085V52.9936H715.244V24.1559H727.789V36.7014H646.325V24.1559H658.87V138.208ZM678.912 109.367H711.497V121.913H698.951V93.0748H727.789V105.62H715.244V56.7404H727.789V69.289H698.951V40.4481H711.497V52.9936H678.912V40.4481H691.458V121.913H678.912V109.367ZM666.364 134.461V27.9026H724.042V56.7404H711.497V44.1949H740.338V118.166H711.497V105.62H724.042V134.461H666.364Z" fill="#2B2D74"/>
<path d="M754.342 138.208V121.913H766.888V134.461H738.05V27.9026H766.888V40.4481H754.342V11.6104H860.901V40.4481H848.355V27.9026H877.193V134.461H848.355V121.913H860.901V150.753H754.342V138.208ZM779.436 138.208H766.888V125.659H848.355V138.208H835.807V109.367H864.647V121.913H852.102V40.4481H864.647V52.9936H835.807V24.1559H848.355V36.7014H766.888V24.1559H779.436V52.9936H750.595V40.4481H763.141V121.913H750.595V109.367H779.436V138.208ZM783.183 109.367H832.06V121.913H819.514V40.4481H832.06V52.9936H783.183V40.4481H795.728V121.913H783.183V109.367ZM770.634 134.461V27.9026H844.608V134.461H770.634Z" fill="#2B2D74"/>
<path d="M874.905 138.208V121.913H887.453V134.461H858.613V105.62H871.158V118.166H842.32V44.1949H871.158V56.7404H858.613V27.9026H887.453V40.4481H874.905V11.6104H965.171V40.4481H952.626V27.9026H981.463V69.289H923.785V40.4481H936.33V52.9936H903.746V40.4481H916.291V69.289H887.453V56.7404H899.999V105.62H887.453V93.0748H916.291V121.913H903.746V109.367H936.33V121.913H923.785V93.0748H981.463V134.461H952.626V121.913H965.171V150.753H874.905V138.208ZM899.999 138.208H887.453V125.659H952.626V138.208H940.077V109.367H968.918V121.913H956.372V105.62H968.918V118.166H936.33V105.62H948.879V134.461H891.2V105.62H903.746V118.166H874.905V44.1949H903.746V56.7404H891.2V27.9026H948.879V56.7404H936.33V44.1949H968.918V56.7404H956.372V40.4481H968.918V52.9936H940.077V24.1559H952.626V36.7014H887.453V24.1559H899.999V52.9936H871.158V40.4481H883.707V69.289H854.866V56.7404H867.411V105.62H854.866V93.0748H883.707V121.913H871.158V109.367H899.999V138.208Z" fill="#2B2D74"/>
<path d="M962.884 138.208V121.913H975.43V134.461H946.592V93.0748H1004.27V121.913H991.725V109.367H1040.6V121.913H1028.06V89.328H1040.6V101.874H962.884V73.0358H975.43V85.5813H946.592V27.9026H975.43V40.4481H962.884V11.6104H1069.44V40.4481H1056.9V27.9026H1085.73V69.289H1028.06V40.4481H1040.6V52.9936H991.725V40.4481H1004.27V73.0358H991.725V60.4871H1069.44V89.328H1056.9V76.7825H1085.73V134.461H1056.9V121.913H1069.44V150.753H962.884V138.208ZM987.978 138.208H975.43V125.659H1056.9V138.208H1044.35V109.367H1073.19V121.913H1060.64V89.328H1073.19V101.874H1044.35V73.0358H1056.9V85.5813H979.176V27.9026H1053.15V56.7404H1040.6V44.1949H1073.19V56.7404H1060.64V40.4481H1073.19V52.9936H1044.35V24.1559H1056.9V36.7014H975.43V24.1559H987.978V52.9936H959.137V40.4481H971.683V73.0358H959.137V60.4871H987.978V89.328H975.43V76.7825H1053.15V134.461H979.176V105.62H991.725V118.166H959.137V105.62H971.683V121.913H959.137V109.367H987.978V138.208Z" fill="#2B2D74"/>
<path d="M646.324 138.211V24.1494H727.795V40.4385H744.084V56.7402H760.386V105.62H744.084V121.909H727.795V138.211H646.324ZM678.915 121.909H711.493V105.62H727.795V56.7402H711.493V40.4385H678.915V121.909Z" fill="#FFE501"/>
<path d="M766.884 138.211V121.909H750.595V40.4385H766.884V24.1494H848.355V40.4385H864.656V121.909H848.355V138.211H766.884ZM783.186 121.909H832.065V40.4385H783.186V121.909Z" fill="#FFE501"/>
<path d="M887.456 138.211V121.909H871.154V105.62H854.865V56.7402H871.154V40.4385H887.456V24.1494H952.625V40.4385H968.927V56.7402H936.336V40.4385H903.745V56.7402H887.456V105.62H903.745V121.909H936.336V105.62H968.927V121.909H952.625V138.211H887.456Z" fill="#FFE501"/>
<path d="M975.425 138.211V121.909H959.136V105.62H991.727V121.909H1040.61V89.331H975.425V73.0293H959.136V40.4385H975.425V24.1494H1056.9V40.4385H1073.2V56.7402H1040.61V40.4385H991.727V73.0293H1056.9V89.331H1073.2V121.909H1056.9V138.211H975.425Z" fill="#FFE501"/>
</g>
<mask id="mask8_118_5598" style="mask-type:luminance" maskUnits="userSpaceOnUse" x="6" y="0" width="121" height="179">
<path d="M6 0H126.066V178.681H6V0Z" fill="white"/>
</mask>
<g mask="url(#mask8_118_5598)">
<mask id="mask9_118_5598" style="mask-type:luminance" maskUnits="userSpaceOnUse" x="5" y="-1" width="122" height="180">
<path d="M126.065 -0.294922H5.31641V178.976H126.065V-0.294922Z" fill="white"/>
</mask>
<g mask="url(#mask9_118_5598)">
<path d="M12.0107 78.3423V58.6304H21.8609V68.4805H61.2964V78.3423H12.0107ZM12.0107 29.0567V19.1949H21.8609V29.0567H12.0107ZM21.8609 58.6304V48.7686H31.7227V58.6304H21.8609ZM21.8609 19.1949V9.34473H51.4346V19.1949H21.8609ZM31.7227 48.7686V38.9184H51.4346V48.7686H31.7227ZM51.4346 38.9184V19.1949H61.2964V38.9184H51.4346Z" fill="#2B2D74"/>
<path d="M110.565 68.4805V78.3423H80.9918V68.4805H110.565ZM71.1416 68.4805V19.1949H80.9918V68.4805H71.1416ZM80.9918 19.1949V9.34473H110.565V19.1949H80.9918ZM90.8535 48.7686V38.9184H100.715V48.7686H90.8535ZM110.565 68.4805V19.1949H120.427V68.4805H110.565Z" fill="#2B2D74"/>
<path d="M12.0107 157.765V138.053H21.8609V147.903H61.2964V157.765H12.0107ZM12.0107 108.48V98.6178H21.8609V108.48H12.0107ZM21.8609 138.053V128.191H31.7227V138.053H21.8609ZM21.8609 98.6178V88.7676H51.4346V98.6178H21.8609ZM31.7227 128.191V118.341H51.4346V128.191H31.7227ZM51.4346 118.341V98.6178H61.2964V118.341H51.4346Z" fill="#2B2D74"/>
<path d="M71.1416 118.341V88.7676H120.427V98.6178H80.9918V118.341H71.1416ZM71.1416 147.903V138.053H80.9918V147.903H71.1416ZM80.9918 157.765V147.903H110.565V157.765H80.9918ZM80.9918 128.191V118.341H110.565V128.191H80.9918ZM110.565 147.903V128.191H120.427V147.903H110.565Z" fill="#2B2D74"/>
</g>
</g>
</g>
</svg>
