<svg width="84" height="81" viewBox="0 0 84 81" fill="none" xmlns="http://www.w3.org/2000/svg">
<mask id="mask0_114_355" style="mask-type:luminance" maskUnits="userSpaceOnUse" x="5" y="2" width="79" height="79">
<path d="M5.37012 2.5H83.8125V81H5.37012V2.5Z" fill="white"/>
</mask>
<g mask="url(#mask0_114_355)">
<mask id="mask1_114_355" style="mask-type:luminance" maskUnits="userSpaceOnUse" x="-139" y="-61" width="361" height="203">
<path d="M221.87 -60.75H-138.13V141.75H221.87V-60.75Z" fill="black" fill-opacity="0.3"/>
</mask>
<g mask="url(#mask1_114_355)">
<mask id="mask2_114_355" style="mask-type:luminance" maskUnits="userSpaceOnUse" x="5" y="2" width="79" height="79">
<path d="M83.8702 2.5H5.37012V81H83.8702V2.5Z" fill="white"/>
</mask>
<g mask="url(#mask2_114_355)">
<mask id="mask3_114_355" style="mask-type:luminance" maskUnits="userSpaceOnUse" x="5" y="2" width="79" height="79">
<path d="M5.57031 2.74902H83.75V80.9991H5.57031V2.74902Z" fill="white"/>
</mask>
<g mask="url(#mask3_114_355)">
<path d="M80.9483 30.7305V25.1475H78.1563V19.5654H75.3653V16.7734H72.5743V13.9824H69.7823V11.1914H66.9912V8.40039H64.2002V5.6084H55.8262V2.81738H33.4951V5.6084H25.1221V8.40039H22.3301V11.1914H19.5391V13.9824H16.7481V16.7734H13.9561V19.5654H11.165V25.1475H8.37402V30.7305H5.58203V53.0606H8.37402V58.6436H11.165V64.2266H13.9561V67.0176H16.7481V69.8086H19.5391V72.5996H22.3301V75.3916H25.1221V78.1827H33.4951V80.9737H55.8262V78.1827H64.2002V75.3916H66.9912V72.5996H69.7823V69.8086H72.5743V67.0176H75.3653V64.2266H78.1563V58.6436H80.9483V53.0606H83.7393V30.7305H80.9483Z" fill="#160059"/>
</g>
</g>
</g>
</g>
<path d="M2.79102 50.2696V27.9395L5.58203 22.3565L8.37403 16.7734L19.5391 5.6084L27.9131 2.81738H50.2432L58.6172 5.6084L69.7823 16.7734L72.5743 22.3565L75.3653 27.9395V50.2696L72.5743 55.8526L69.7823 61.4346L58.6172 72.5996L50.2432 75.3916H27.9131L19.5391 72.5996L8.37403 61.4346L2.79102 50.2696Z" fill="#ED1C24"/>
<mask id="mask4_114_355" style="mask-type:luminance" maskUnits="userSpaceOnUse" x="0" y="0" width="84" height="81">
<path d="M83.8701 0.375H0.0576172V81H83.8701V0.375Z" fill="black" fill-opacity="0.3"/>
</mask>
<g mask="url(#mask4_114_355)">
<mask id="mask5_114_355" style="mask-type:luminance" maskUnits="userSpaceOnUse" x="2" y="5" width="49" height="71">
<path d="M50.3701 5.5H2.62012V75.75H50.3701V5.5Z" fill="white"/>
</mask>
<g mask="url(#mask5_114_355)">
<mask id="mask6_114_355" style="mask-type:luminance" maskUnits="userSpaceOnUse" x="2" y="5" width="49" height="71">
<path d="M2.62988 5.5498H50.2705V75.5H2.62988V5.5498Z" fill="white"/>
</mask>
<g mask="url(#mask6_114_355)">
<path d="M27.9131 8.40039H19.5391V5.6084H27.9131V8.40039ZM19.5391 8.40039H16.7481V11.1914H19.5391V8.40039ZM16.7481 11.1914H13.9561V13.9824H16.7481V11.1914ZM13.9561 13.9824H11.165V16.7734H13.9561V13.9824ZM11.165 19.5654V16.7734H8.37403V22.3565H11.165V19.5654ZM8.37403 25.1475V22.3565H5.58203V27.9395H8.37403V25.1475ZM5.58203 44.6865V27.9395H2.79102V50.2696H5.58203V44.6865ZM8.37403 50.2696H5.58203V55.8526H8.37403V50.2696ZM11.165 55.8526H8.37403V61.4346H11.165V55.8526ZM11.165 61.4346V64.2266H13.9561V61.4346H11.165ZM13.9561 64.2266V67.0176H16.7481V64.2266H13.9561ZM16.7481 67.0176V69.8086H19.5391V67.0176H16.7481ZM19.5391 69.8086V72.5996H27.9131V69.8086H19.5391ZM27.9131 72.5996V75.3916H50.2432V72.5996H27.9131Z" fill="#160059"/>
</g>
</g>
</g>
<mask id="mask7_114_355" style="mask-type:luminance" maskUnits="userSpaceOnUse" x="0" y="0" width="79" height="79">
<path d="M0 0H78.3702V78.25H0V0Z" fill="white"/>
</mask>
<g mask="url(#mask7_114_355)">
<path d="M30.7041 2.81738H27.9131V0.0263672H50.2432V2.81738H30.7041ZM25.1221 5.6084H27.9131V2.81738H19.5391V5.6084H25.1221ZM53.0352 5.6084H58.6172V2.81738H50.2432V5.6084H53.0352ZM19.5391 5.6084H16.7481V8.40039H19.5391V5.6084ZM61.4082 8.40039V5.6084H58.6172V8.40039H61.4082ZM16.7481 8.40039H13.9561V11.1914H16.7481V8.40039ZM64.2002 11.1914V8.40039H61.4082V11.1914H64.2002ZM13.9561 11.1914H11.165V13.9824H13.9561V11.1914ZM66.9912 13.9824V11.1914H64.2002V13.9824H66.9912ZM11.165 13.9824H8.37403V16.7734H11.165V13.9824ZM69.7823 16.7734V13.9824H66.9912V16.7734H69.7823ZM8.37403 19.5654V16.7734H5.58203V22.3565H8.37403V19.5654ZM69.7823 22.3565H72.5743V16.7734H69.7823V22.3565ZM5.58203 25.1475V22.3565H2.79102V27.9395H5.58203V25.1475ZM72.5743 27.9395H75.3653V22.3565H72.5743V27.9395ZM75.3653 27.9395V50.2696H78.1563V27.9395H75.3653ZM2.79102 44.6865V27.9395H0V50.2696H2.79102V44.6865ZM5.58203 50.2696H2.79102V55.8526H5.58203V50.2696ZM72.5743 53.0606V55.8526H75.3653V50.2696H72.5743V53.0606ZM8.37403 55.8526H5.58203V61.4346H8.37403V55.8526ZM69.7823 58.6436V61.4346H72.5743V55.8526H69.7823V58.6436ZM8.37403 61.4346V64.2266H11.165V61.4346H8.37403ZM66.9912 64.2266H69.7823V61.4346H66.9912V64.2266ZM11.165 64.2266V67.0176H13.9561V64.2266H11.165ZM64.2002 67.0176H66.9912V64.2266H64.2002V67.0176ZM13.9561 67.0176V69.8086H16.7481V67.0176H13.9561ZM61.4082 69.8086H64.2002V67.0176H61.4082V69.8086ZM16.7481 69.8086V72.5996H19.5391V69.8086H16.7481ZM58.6172 72.5996H61.4082V69.8086H58.6172V72.5996ZM25.1221 72.5996H19.5391V75.3916H27.9131V72.5996H25.1221ZM53.0352 72.5996H50.2432V75.3916H58.6172V72.5996H53.0352ZM44.6612 75.3916H27.9131V78.1827H50.2432V75.3916H44.6612Z" fill="#160059"/>
</g>
<path d="M47.4522 36.3135V41.8955H50.2432V44.6865H53.0352V47.4785H55.8262V50.2695H58.6172V53.0606H61.4082V55.8526H58.6172V58.6436H55.8262V61.4346H53.0352V58.6436H50.2432V55.8526H47.4522V53.0606H44.6611V50.2695H41.8692V47.4785H36.2871V50.2695H33.4951V53.0606H30.7041V55.8526H27.9131V58.6436H25.1221V61.4346H22.3301V58.6436H19.5391V55.8526H16.748V53.0606H19.5391V50.2695H22.3301V47.4785H25.1221V44.6865H27.9131V41.8955H30.7041V36.3135H27.9131V33.5215H25.1221V30.7305H22.3301V27.9395H19.5391V25.1475H16.748V22.3564H19.5391V19.5654H22.3301V16.7734H25.1221V19.5654H27.9131V22.3564H30.7041V25.1475H33.4951V27.9395H36.2871V30.7305H41.8692V27.9395H44.6611V25.1475H47.4522V22.3564H50.2432V19.5654H53.0352V16.7734H55.8262V19.5654H58.6172V22.3564H61.4082V25.1475H58.6172V27.9395H55.8262V30.7305H53.0352V33.5215H50.2432V36.3135H47.4522Z" fill="white"/>
<mask id="mask8_114_355" style="mask-type:luminance" maskUnits="userSpaceOnUse" x="0" y="2" width="76" height="74">
<path d="M75.4326 2.4375H0.0576172V75.9375H75.4326V2.4375Z" fill="black" fill-opacity="0.3"/>
</mask>
<g mask="url(#mask8_114_355)">
<mask id="mask9_114_355" style="mask-type:luminance" maskUnits="userSpaceOnUse" x="27" y="2" width="49" height="71">
<path d="M75.6201 2.5H27.8701V72.75H75.6201V2.5Z" fill="white"/>
</mask>
<g mask="url(#mask9_114_355)">
<mask id="mask10_114_355" style="mask-type:luminance" maskUnits="userSpaceOnUse" x="27" y="2" width="49" height="71">
<path d="M27.8896 2.74902H75.3701V72.6289H27.8896V2.74902Z" fill="white"/>
</mask>
<g mask="url(#mask10_114_355)">
<path d="M50.2442 69.8086H58.6182V72.5996H50.2442V69.8086ZM58.6182 69.8086H61.4092V67.0176H58.6182V69.8086ZM61.4092 67.0176H64.2012V64.2266H61.4092V67.0176ZM64.2012 64.2266H66.9922V61.4346H64.2012V64.2266ZM66.9922 58.6436V61.4346H69.7832V55.8526H66.9922V58.6436ZM69.7832 53.0606V55.8526H72.5752V50.2696H69.7832V53.0606ZM72.5752 27.9395V50.2696H75.3662V27.9395H72.5752ZM72.5752 22.3565H69.7832V27.9395H72.5752V22.3565ZM69.7832 16.7734H66.9922V22.3565H69.7832V16.7734ZM64.2012 13.9824V16.7734H66.9922V13.9824H64.2012ZM61.4092 11.1914V13.9824H64.2012V11.1914H61.4092ZM58.6182 8.40039V11.1914H61.4092V8.40039H58.6182ZM50.2442 5.6084V8.40039H58.6182V5.6084H50.2442ZM27.9141 2.81738V5.6084H50.2442V2.81738H27.9141Z" fill="white"/>
</g>
</g>
</g>
</svg>
