<svg width="546" height="387" viewBox="0 0 546 387" fill="none" xmlns="http://www.w3.org/2000/svg">
<mask id="mask0_176_10061" style="mask-type:luminance" maskUnits="userSpaceOnUse" x="64" y="76" width="434" height="138">
<path d="M497.552 76.8164H64.46V213.794H497.552V76.8164Z" fill="white"/>
</mask>
<g mask="url(#mask0_176_10061)">
<mask id="mask1_176_10061" style="mask-type:luminance" maskUnits="userSpaceOnUse" x="65" y="77" width="134" height="134">
<path d="M65.4668 77.1787H198.416V210.773H65.4668V77.1787Z" fill="white"/>
</mask>
<g mask="url(#mask1_176_10061)">
<path d="M65.708 197.849V77.7773H120.415V105.133H108.518V93.2314H135.869V120.583H123.968V108.686H151.323V136.037H139.422V124.14H154.876V136.037H142.974V77.7773H197.681V209.751H142.974V166.945H154.876V178.843H127.524V151.491H139.422V163.389H112.07V136.037H123.968V147.938H108.518V136.037H120.415V209.751H65.708V197.849ZM89.5108 197.849H77.6094V185.952H108.518V197.849H96.6162V124.14H135.869V151.491H123.968V139.59H151.323V166.945H139.422V155.044H166.773V197.849H154.876V185.952H185.78V197.849H173.883V89.6787H185.78V101.576H154.876V89.6787H166.773V147.938H127.524V120.583H139.422V132.484H112.07V105.133H123.968V117.03H96.6162V89.6787H108.518V101.576H77.6094V89.6787H89.5108V197.849Z" fill="#2A2D74"/>
</g>
<mask id="mask2_176_10061" style="mask-type:luminance" maskUnits="userSpaceOnUse" x="164" y="77" width="134" height="134">
<path d="M164.172 77.1787H297.121V210.773H164.172V77.1787Z" fill="white"/>
</mask>
<g mask="url(#mask2_176_10061)">
<path d="M164.604 197.849V77.7773H219.311V105.133H207.413V93.2314H234.765V120.583H222.863V108.686H250.219V136.037H238.317V124.14H253.771V136.037H241.87V77.7773H296.577V209.751H241.87V166.945H253.771V178.843H226.42V151.491H238.317V163.389H210.966V136.037H222.863V147.938H207.413V136.037H219.311V209.751H164.604V197.849ZM188.406 197.849H176.505V185.952H207.413V197.849H195.512V124.14H234.765V151.491H222.863V139.59H250.219V166.945H238.317V155.044H265.669V197.849H253.771V185.952H284.676V197.849H272.778V89.6787H284.676V101.576H253.771V89.6787H265.669V147.938H226.42V120.583H238.317V132.484H210.966V105.133H222.863V117.03H195.512V89.6787H207.413V101.576H176.505V89.6787H188.406V197.849Z" fill="#2A2D74"/>
</g>
<mask id="mask3_176_10061" style="mask-type:luminance" maskUnits="userSpaceOnUse" x="294" y="77" width="72" height="72">
<path d="M294.1 77.1787H365.61V148.327H294.1V77.1787Z" fill="white"/>
</mask>
<g mask="url(#mask3_176_10061)">
<path d="M294.407 136.037V108.686H321.759V120.583H309.861V77.7773H364.564V132.484H337.213V120.583H349.114V147.938H294.407V136.037ZM318.206 136.037H306.309V124.14H337.213V136.037H325.315V108.686H352.667V120.583H340.766V89.6787H352.667V101.576H321.759V89.6787H333.66V132.484H306.309V120.583H318.206V136.037Z" fill="#2A2D74"/>
</g>
<mask id="mask4_176_10061" style="mask-type:luminance" maskUnits="userSpaceOnUse" x="361" y="77" width="134" height="134">
<path d="M361.581 77.1787H494.53V210.773H361.581V77.1787Z" fill="white"/>
</mask>
<g mask="url(#mask4_176_10061)">
<path d="M377.85 197.849V182.395H389.751V194.297H362.396V155.044H417.102V182.395H405.205V170.498H451.563V182.395H439.662V151.491H451.563V163.389H377.85V136.037H389.751V147.938H362.396V93.2314H389.751V105.133H377.85V77.7773H478.915V105.133H467.017V93.2314H494.369V132.484H439.662V105.133H451.563V117.03H405.205V105.133H417.102V136.037H405.205V124.14H478.915V151.491H467.017V139.59H494.369V194.297H467.017V182.395H478.915V209.751H377.85V197.849ZM401.648 197.849H389.751V185.952H467.017V197.849H455.116V170.498H482.468V182.395H470.57V151.491H482.468V163.389H455.116V136.037H467.017V147.938H393.304V93.2314H463.461V120.583H451.563V108.686H482.468V120.583H470.57V105.133H482.468V117.03H455.116V89.6787H467.017V101.576H389.751V89.6787H401.648V117.03H374.297V105.133H386.198V136.037H374.297V124.14H401.648V151.491H389.751V139.59H463.461V194.297H393.304V166.945H405.205V178.843H374.297V166.945H386.198V182.395H374.297V170.498H401.648V197.849Z" fill="#2A2D74"/>
</g>
<path d="M77.6094 197.85V89.6709H108.518V105.125H123.972V120.579H139.426V136.033H154.88V89.6709H185.788V197.85H154.88V166.941H139.426V151.487H123.972V136.033H108.518V197.85H77.6094Z" fill="#2A2D74"/>
<path d="M176.505 197.85V89.6709H207.413V105.125H222.867V120.579H238.321V136.033H253.775V89.6709H284.683V197.85H253.775V166.941H238.321V151.487H222.867V136.033H207.413V197.85H176.505Z" fill="#2A2D74"/>
<path d="M306.309 136.033V120.579H321.763V89.6709H352.671V120.579H337.217V136.033H306.309Z" fill="#2A2D74"/>
<path d="M389.75 197.85V182.395H374.296V166.941H405.204V182.395H451.566V151.487H389.75V136.033H374.296V105.125H389.75V89.6709H467.02V105.125H482.475V120.579H451.566V105.125H405.204V136.033H467.02V151.487H482.475V182.395H467.02V197.85H389.75Z" fill="#2A2D74"/>
</g>
<mask id="mask5_176_10061" style="mask-type:luminance" maskUnits="userSpaceOnUse" x="50" y="56" width="434" height="139">
<path d="M483.451 56.6729H50.3594V194.658H483.451V56.6729Z" fill="white"/>
</mask>
<g mask="url(#mask5_176_10061)">
<mask id="mask6_176_10061" style="mask-type:luminance" maskUnits="userSpaceOnUse" x="50" y="57" width="135" height="134">
<path d="M50.9648 57.6797H184.315V190.629H50.9648V57.6797Z" fill="white"/>
</mask>
<g mask="url(#mask6_176_10061)">
<path d="M51.3564 178.21V58.1377H106.063V85.4932H94.166V73.5918H121.518V100.943H109.616V89.0459H136.972V116.397H125.07V104.5H140.524V116.397H128.623V58.1377H183.33V190.111H128.623V147.306H140.524V159.203H113.173V131.851H125.07V143.749H97.7187V116.397H109.616V128.299H94.166V116.397H106.063V190.111H51.3564V178.21ZM75.1592 178.21H63.2578V166.312H94.166V178.21H82.2646V104.5H121.518V131.851H109.616V119.95H136.972V147.306H125.07V135.404H152.422V178.21H140.524V166.312H171.429V178.21H159.531V70.0391H171.429V81.9365H140.524V70.0391H152.422V128.299H113.173V100.943H125.07V112.845H97.7187V85.4932H109.616V97.3906H82.2646V70.0391H94.166V81.9365H63.2578V70.0391H75.1592V178.21Z" fill="#2A2D74"/>
</g>
<path d="M150.251 178.21V58.1377H204.958V85.4932H193.061V73.5918H220.412V100.943H208.511V89.0459H235.866V116.397H223.965V104.5H239.419V116.397H227.517V58.1377H282.224V190.111H227.517V147.306H239.419V159.203H212.067V131.851H223.965V143.749H196.613V116.397H208.511V128.299H193.061V116.397H204.958V190.111H150.251V178.21ZM174.054 178.21H162.152V166.312H193.061V178.21H181.159V104.5H220.412V131.851H208.511V119.95H235.866V147.306H223.965V135.404H251.316V178.21H239.419V166.312H270.323V178.21H258.426V70.0391H270.323V81.9365H239.419V70.0391H251.316V128.299H212.067V100.943H223.965V112.845H196.613V85.4932H208.511V97.3906H181.159V70.0391H193.061V81.9365H162.152V70.0391H174.054V178.21Z" fill="#2A2D74"/>
<path d="M280.055 116.397V89.0459H307.406V100.943H295.509V58.1377H350.212V112.845H322.86V100.943H334.762V128.299H280.055V116.397ZM303.854 116.397H291.956V104.5H322.86V116.397H310.963V89.0459H338.314V100.943H326.413V70.0391H338.314V81.9365H307.406V70.0391H319.308V112.845H291.956V100.943H303.854V116.397Z" fill="#2A2D74"/>
<path d="M363.497 178.21V162.756H375.398V174.657H348.043V135.404H402.75V162.756H390.853V150.858H437.211V162.756H425.309V131.851H437.211V143.749H363.497V116.397H375.398V128.299H348.043V73.5918H375.398V85.4932H363.497V58.1377H464.562V85.4932H452.665V73.5918H480.016V112.845H425.309V85.4932H437.211V97.3906H390.853V85.4932H402.75V116.397H390.853V104.5H464.562V131.851H452.665V119.95H480.016V174.657H452.665V162.756H464.562V190.111H363.497V178.21ZM387.296 178.21H375.398V166.312H452.665V178.21H440.764V150.858H468.115V162.756H456.218V131.851H468.115V143.749H440.764V116.397H452.665V128.299H378.951V73.5918H449.108V100.943H437.211V89.0459H468.115V100.943H456.218V85.4932H468.115V97.3906H440.764V70.0391H452.665V81.9365H375.398V70.0391H387.296V97.3906H359.944V85.4932H371.846V116.397H359.944V104.5H387.296V131.851H375.398V119.95H449.108V174.657H378.951V147.306H390.853V159.203H359.944V147.306H371.846V162.756H359.944V150.858H387.296V178.21Z" fill="#2A2D74"/>
<path d="M63.2568 178.21V70.0312H94.165V85.4853H109.619V100.939H125.073V116.394H140.527V70.0312H171.435V178.21H140.527V147.302H125.073V131.848H109.619V116.394H94.165V178.21H63.2568Z" fill="white"/>
<path d="M162.152 178.21V70.0312H193.061V85.4853H208.515V100.939H223.969V116.394H239.423V70.0312H270.331V178.21H239.423V147.302H223.969V131.848H208.515V116.394H193.061V178.21H162.152Z" fill="white"/>
<path d="M291.957 116.394V100.939H307.411V70.0312H338.319V100.939H322.865V116.394H291.957Z" fill="white"/>
<path d="M375.398 178.21V162.756H359.944V147.302H390.853V162.756H437.215V131.848H375.398V116.394H359.944V85.4853H375.398V70.0312H452.669V85.4853H468.123V100.939H437.215V85.4853H390.853V116.394H452.669V131.848H468.123V162.756H452.669V178.21H375.398Z" fill="white"/>
</g>
<mask id="mask7_176_10061" style="mask-type:luminance" maskUnits="userSpaceOnUse" x="14" y="248" width="532" height="139">
<path d="M545.897 248.039H14.1006V386.024H545.897V248.039Z" fill="white"/>
</mask>
<g mask="url(#mask7_176_10061)">
<path d="M148.229 276.875V350.585H120.878V338.687H132.775V366.039H105.424V354.138H117.321V381.493H31.7099V354.138H43.6113V366.039H16.2559V264.974H43.6113V276.875H31.7099V249.52H132.775V276.875H120.878V264.974H148.229V276.875ZM124.431 276.875H136.328V288.772H108.976V261.421H120.878V273.318H43.6113V261.421H55.5088V288.772H28.1572V276.875H40.0586V354.138H28.1572V342.24H55.5088V369.592H43.6113V357.694H105.424V369.592H93.5223V342.24H120.878V354.138H108.976V326.786H136.328V338.687H124.431V276.875ZM105.424 288.772H59.0654V276.875H70.9628V354.138H59.0654V342.24H89.9696V354.138H78.0722V338.687H89.9696V350.585H62.6181V311.332H105.424V323.233H93.5223V276.875H105.424V288.772ZM117.321 264.974V335.131H74.5156V323.233H86.4169V338.687H74.5156V326.786H101.871V366.039H47.164V264.974H117.321ZM108.976 369.592V342.24H148.229V381.493H108.976V369.592ZM132.775 369.592H120.878V357.694H136.328V369.592H124.431V354.138H136.328V366.039H120.878V354.138H132.775V369.592Z" fill="#2A2D74"/>
<path d="M130.605 369.592V354.138H142.507V366.039H115.151V249.52H169.858V354.138H157.961V342.24H204.319V354.138H192.418V249.52H247.125V366.039H219.773V354.138H231.671V381.493H130.605V369.592ZM154.404 369.592H142.507V357.694H219.773V369.592H207.872V342.24H235.223V354.138H223.326V261.421H235.223V273.318H204.319V261.421H216.217V366.039H146.06V261.421H157.961V273.318H127.053V261.421H138.954V354.138H127.053V342.24H154.404V369.592Z" fill="#2A2D74"/>
<path d="M214.047 369.592V249.52H346.02V288.772H256.856V276.875H268.754V307.779H256.856V295.882H330.566V335.131H256.856V323.233H268.754V354.138H256.856V342.24H346.02V381.493H214.047V369.592ZM237.85 369.592H225.948V357.694H334.119V369.592H322.222V354.138H334.119V366.039H244.955V311.332H318.669V323.233H306.767V307.779H318.669V319.681H244.955V264.974H334.119V276.875H322.222V261.421H334.119V273.318H225.948V261.421H237.85V369.592Z" fill="#2A2D74"/>
<path d="M328.396 369.592V354.138H340.298V366.039H312.942V326.786H367.649V354.138H355.752V342.24H402.11V354.138H390.209V323.233H402.11V335.131H328.396V307.779H340.298V319.681H312.942V264.974H340.298V276.875H328.396V249.52H429.462V276.875H417.564V264.974H444.916V304.227H390.209V276.875H402.11V288.772H355.752V276.875H367.649V307.779H355.752V295.882H429.462V323.233H417.564V311.332H444.916V366.039H417.564V354.138H429.462V381.493H328.396V369.592ZM352.195 369.592H340.298V357.694H417.564V369.592H405.663V342.24H433.014V354.138H421.117V323.233H433.014V335.131H405.663V307.779H417.564V319.681H343.851V264.974H414.008V292.325H402.11V280.428H433.014V292.325H421.117V276.875H433.014V288.772H405.663V261.421H417.564V273.318H340.298V261.421H352.195V288.772H324.844V276.875H336.745V307.779H324.844V295.882H352.195V323.233H340.298V311.332H414.008V366.039H343.851V338.687H355.752V350.585H324.844V338.687H336.745V354.138H324.844V342.24H352.195V369.592Z" fill="#2A2D74"/>
<path d="M458.2 369.592V276.875H470.098V288.772H427.292V249.52H543.811V288.772H501.006V276.875H512.903V381.493H458.2V369.592ZM481.999 369.592H470.098V357.694H501.006V369.592H489.104V264.974H531.91V276.875H520.013V261.421H531.91V273.318H439.193V261.421H451.091V276.875H439.193V264.974H481.999V369.592Z" fill="#2A2D74"/>
<path d="M136.335 276.867V338.684H120.881V354.138H105.427V369.592H43.6103V354.138H28.1562V276.867H43.6103V261.413H120.881V276.867H136.335ZM105.427 276.867H59.0644V354.138H89.9726V338.684H74.5185V323.229H105.427V276.867ZM120.881 369.592V354.138H136.335V369.592H120.881Z" fill="#2A2D74"/>
<path d="M142.507 369.592V354.138H127.053V261.413H157.961V354.138H204.323V261.413H235.231V354.138H219.777V369.592H142.507Z" fill="#2A2D74"/>
<path d="M225.948 369.592V261.413H334.127V276.867H256.856V307.775H318.673V323.229H256.856V354.138H334.127V369.592H225.948Z" fill="#2A2D74"/>
<path d="M340.298 369.592V354.138H324.844V338.684H355.752V354.138H402.114V323.229H340.298V307.775H324.844V276.867H340.298V261.413H417.568V276.867H433.022V292.321H402.114V276.867H355.752V307.775H417.568V323.229H433.022V354.138H417.568V369.592H340.298Z" fill="#2A2D74"/>
<path d="M470.102 369.592V276.867H439.193V261.413H531.918V276.867H501.01V369.592H470.102Z" fill="#2A2D74"/>
</g>
<mask id="mask8_176_10061" style="mask-type:luminance" maskUnits="userSpaceOnUse" x="0" y="228" width="532" height="138">
<path d="M531.797 228.902H0V365.88H531.797V228.902Z" fill="white"/>
</mask>
<g mask="url(#mask8_176_10061)">
<mask id="mask9_176_10061" style="mask-type:luminance" maskUnits="userSpaceOnUse" x="1" y="229" width="134" height="134">
<path d="M1.00684 229.225H134.963V362.858H1.00684V229.225Z" fill="white"/>
</mask>
<g mask="url(#mask9_176_10061)">
<path d="M133.877 257.234V330.944H106.525V319.047H118.423V346.398H91.0712V334.497H102.969V361.852H17.3574V334.497H29.2588V346.398H1.90332V245.333H29.2588V257.234H17.3574V229.879H118.423V257.234H106.525V245.333H133.877V257.234ZM110.078 257.234H121.975V269.132H94.6239V241.78H106.525V253.678H29.2588V241.78H41.1562V269.132H13.8047V257.234H25.7061V334.497H13.8047V322.599H41.1562V349.951H29.2588V338.054H91.0712V349.951H79.1698V322.599H106.525V334.497H94.6239V307.145H121.975V319.047H110.078V257.234ZM91.0712 269.132H44.7129V257.234H56.6103V334.497H44.7129V322.599H75.6171V334.497H63.7197V319.047H75.6171V330.944H48.2656V291.691H91.0712V303.593H79.1698V257.234H91.0712V269.132ZM102.969 245.333V315.49H60.163V303.593H72.0644V319.047H60.163V307.145H87.5185V346.398H32.8115V245.333H102.969ZM94.6239 349.951V322.599H133.877V361.852H94.6239V349.951ZM118.423 349.951H106.525V338.054H121.975V349.951H110.078V334.497H121.975V346.398H106.525V334.497H118.423V349.951Z" fill="#2A2D74"/>
</g>
<mask id="mask10_176_10061" style="mask-type:luminance" maskUnits="userSpaceOnUse" x="99" y="229" width="135" height="134">
<path d="M99.7119 229.225H233.668V362.858H99.7119V229.225Z" fill="white"/>
</mask>
<g mask="url(#mask10_176_10061)">
<path d="M116.252 349.951V334.497H128.153V346.398H100.798V229.879H155.505V334.497H143.607V322.599H189.966V334.497H178.064V229.879H232.771V346.398H205.42V334.497H217.317V361.852H116.252V349.951ZM140.051 349.951H128.153V338.054H205.42V349.951H193.518V322.599H220.87V334.497H208.973V241.78H220.87V253.678H189.966V241.78H201.863V346.398H131.706V241.78H143.607V253.678H112.699V241.78H124.601V334.497H112.699V322.599H140.051V349.951Z" fill="#2A2D74"/>
</g>
<mask id="mask11_176_10061" style="mask-type:luminance" maskUnits="userSpaceOnUse" x="199" y="229" width="134" height="134">
<path d="M199.424 229.225H332.373V362.858H199.424V229.225Z" fill="white"/>
</mask>
<g mask="url(#mask11_176_10061)">
<path d="M199.694 349.951V229.879H331.668V269.132H242.504V257.234H254.401V288.139H242.504V276.241H316.214V315.49H242.504V303.593H254.401V334.497H242.504V322.599H331.668V361.852H199.694V349.951ZM223.497 349.951H211.596V338.054H319.766V349.951H307.869V334.497H319.766V346.398H230.603V291.691H304.316V303.593H292.415V288.139H304.316V300.04H230.603V245.333H319.766V257.234H307.869V241.78H319.766V253.678H211.596V241.78H223.497V349.951Z" fill="#2A2D74"/>
</g>
<mask id="mask12_176_10061" style="mask-type:luminance" maskUnits="userSpaceOnUse" x="298" y="229" width="134" height="134">
<path d="M298.128 229.225H431.077V362.858H298.128V229.225Z" fill="white"/>
</mask>
<g mask="url(#mask12_176_10061)">
<path d="M314.044 349.951V334.497H325.945V346.398H298.59V307.145H353.297V334.497H341.399V322.599H387.758V334.497H375.856V303.593H387.758V315.49H314.044V288.139H325.945V300.04H298.59V245.333H325.945V257.234H314.044V229.879H415.109V257.234H403.212V245.333H430.563V284.586H375.856V257.234H387.758V269.132H341.399V257.234H353.297V288.139H341.399V276.241H415.109V303.593H403.212V291.691H430.563V346.398H403.212V334.497H415.109V361.852H314.044V349.951ZM337.843 349.951H325.945V338.054H403.212V349.951H391.31V322.599H418.662V334.497H406.764V303.593H418.662V315.49H391.31V288.139H403.212V300.04H329.498V245.333H399.655V272.685H387.758V260.787H418.662V272.685H406.764V257.234H418.662V269.132H391.31V241.78H403.212V253.678H325.945V241.78H337.843V269.132H310.491V257.234H322.393V288.139H310.491V276.241H337.843V303.593H325.945V291.691H399.655V346.398H329.498V319.047H341.399V330.944H310.491V319.047H322.393V334.497H310.491V322.599H337.843V349.951Z" fill="#2A2D74"/>
</g>
<mask id="mask13_176_10061" style="mask-type:luminance" maskUnits="userSpaceOnUse" x="411" y="229" width="119" height="134">
<path d="M411.94 229.225H529.782V362.858H411.94V229.225Z" fill="white"/>
</mask>
<g mask="url(#mask13_176_10061)">
<path d="M443.848 349.951V257.234H455.745V269.132H412.939V229.879H529.459V269.132H486.653V257.234H498.551V361.852H443.848V349.951ZM467.646 349.951H455.745V338.054H486.653V349.951H474.752V245.333H517.557V257.234H505.66V241.78H517.557V253.678H424.841V241.78H436.738V257.234H424.841V245.333H467.646V349.951Z" fill="#2A2D74"/>
</g>
<path d="M121.982 257.228V319.044H106.528V334.498H91.0741V349.952H29.2578V334.498H13.8037V257.228H29.2578V241.773H106.528V257.228H121.982ZM91.0741 257.228H44.7119V334.498H75.6201V319.044H60.166V303.59H91.0741V257.228ZM106.528 349.952V334.498H121.982V349.952H106.528Z" fill="#FFE500"/>
<path d="M128.153 349.952V334.498H112.699V241.773H143.607V334.498H189.97V241.773H220.878V334.498H205.424V349.952H128.153Z" fill="#FFE500"/>
<path d="M211.596 349.952V241.773H319.774V257.228H242.504V288.136H304.32V303.59H242.504V334.498H319.774V349.952H211.596Z" fill="#FFE500"/>
<path d="M325.944 349.952V334.498H310.49V319.044H341.398V334.498H387.761V303.59H325.944V288.136H310.49V257.228H325.944V241.773H403.215V257.228H418.669V272.682H387.761V257.228H341.398V288.136H403.215V303.59H418.669V334.498H403.215V349.952H325.944Z" fill="#FFE500"/>
<path d="M455.749 349.952V257.228H424.841V241.773H517.565V257.228H486.657V349.952H455.749Z" fill="#FFE500"/>
</g>
<path d="M13.5654 29.6177V0H17.7988V12.7H26.2655V16.9334H17.7988V29.6177H13.5654ZM26.2655 21.151V16.9334H30.4988V21.151H26.2655ZM26.2655 12.7V8.4667H30.4988V12.7H26.2655ZM30.4988 29.6177V21.151H34.7164V29.6177H30.4988ZM30.4988 8.4667V0H34.7164V8.4667H30.4988Z" fill="black"/>
<path d="M38.9473 29.6177V4.23335H43.1806V16.9334H55.8807V4.23335H60.0983V29.6177H55.8807V21.151H43.1806V29.6177H38.9473ZM43.1806 4.23335V0H55.8807V4.23335H43.1806Z" fill="black"/>
<path d="M81.2615 29.6177V8.4667H77.0282V4.23335H81.2615V0H85.4791V29.6177H81.2615ZM64.3281 29.6177V0H68.5615V4.23335H72.7948V8.4667H68.5615V29.6177H64.3281ZM72.7948 12.7V8.4667H77.0282V12.7H72.7948Z" fill="black"/>
<path d="M106.642 25.3844V29.6177H93.9423V25.3844H106.642ZM89.709 25.3844V4.23335H93.9423V25.3844H89.709ZM93.9423 4.23335V0H106.642V4.23335H93.9423ZM106.642 25.3844V4.23335H110.86V25.3844H106.642Z" fill="black"/>
<path d="M132.024 29.6177V16.9334H127.791V12.7H132.024V0H136.242V29.6177H132.024ZM115.091 29.6177V0H119.324V4.23335H123.558V8.4667H119.324V29.6177H115.091ZM123.558 12.7V8.4667H127.791V12.7H123.558Z" fill="black"/>
<path d="M157.405 29.6177V16.9334H153.172V12.7H157.405V0H161.623V29.6177H157.405ZM140.472 29.6177V0H144.705V4.23335H148.938V8.4667H144.705V29.6177H140.472ZM148.938 12.7V8.4667H153.172V12.7H148.938Z" fill="black"/>
<path d="M165.853 29.6177V4.23335H170.086V16.9334H182.786V4.23335H187.004V29.6177H182.786V21.151H170.086V29.6177H165.853ZM170.086 4.23335V0H182.786V4.23335H170.086Z" fill="black"/>
<path d="M208.168 29.6177V16.9334H203.934V12.7H208.168V0H212.385V29.6177H208.168ZM191.234 29.6177V0H195.468V4.23335H199.701V8.4667H195.468V29.6177H191.234ZM199.701 12.7V8.4667H203.934V12.7H199.701Z" fill="black"/>
<path d="M244.124 25.3844V29.6177H239.89V25.3844H244.124ZM227.19 25.3844V0H231.424V25.3844H227.19ZM231.424 29.6177V25.3844H235.657V29.6177H231.424ZM235.657 25.3844V16.9334H239.89V25.3844H235.657ZM244.124 25.3844V0H248.341V25.3844H244.124Z" fill="black"/>
<path d="M269.506 25.3844V29.6177H256.806V25.3844H269.506ZM252.572 25.3844V4.23335H256.806V25.3844H252.572ZM256.806 4.23335V0H269.506V4.23335H256.806ZM269.506 25.3844V4.23335H273.723V25.3844H269.506Z" fill="black"/>
<path d="M294.887 29.6177V16.9334H290.653V12.7H294.887V0H299.104V29.6177H294.887ZM277.953 29.6177V0H282.186V4.23335H286.42V8.4667H282.186V29.6177H277.953ZM286.42 12.7V8.4667H290.653V12.7H286.42Z" fill="black"/>
<path d="M320.267 25.3844V29.6177H307.567V25.3844H320.267ZM303.334 25.3844V4.23335H307.567V25.3844H303.334ZM307.567 4.23335V0H320.267V4.23335H307.567ZM316.034 16.9334V12.7H324.485V25.3844H320.267V16.9334H316.034ZM320.267 8.4667V4.23335H324.485V8.4667H320.267Z" fill="black"/>
<path d="M328.716 29.6177V0H345.649V4.23335H332.949V12.7H345.649V16.9334H332.949V29.6177H328.716ZM345.649 12.7V4.23335H349.867V12.7H345.649Z" fill="black"/>
<path d="M354.097 29.6177V0H371.03V4.23335H358.33V12.7H371.03V16.9334H366.797V21.151H362.563V16.9334H358.33V29.6177H354.097ZM366.797 25.3844V21.151H371.03V25.3844H366.797ZM371.03 29.6177V25.3844H375.248V29.6177H371.03ZM371.03 12.7V4.23335H375.248V12.7H371.03Z" fill="black"/>
<path d="M396.412 25.3844V29.6177H383.712V25.3844H396.412ZM379.479 25.3844V4.23335H383.712V25.3844H379.479ZM383.712 4.23335V0H396.412V4.23335H383.712ZM396.412 25.3844V4.23335H400.63V25.3844H396.412Z" fill="black"/>
<path d="M421.793 29.6177V8.4667H417.559V4.23335H421.793V0H426.01V29.6177H421.793ZM404.859 29.6177V0H409.093V4.23335H413.326V8.4667H409.093V29.6177H404.859ZM413.326 12.7V8.4667H417.559V12.7H413.326Z" fill="black"/>
<path d="M430.24 29.6177V0H447.174V4.23335H434.474V12.7H447.174V16.9334H434.474V25.3844H447.174V29.6177H430.24ZM447.174 25.3844V16.9334H451.391V25.3844H447.174ZM447.174 12.7V4.23335H451.391V12.7H447.174Z" fill="black"/>
<path d="M472.555 25.3844V29.6177H459.855V25.3844H472.555ZM455.622 25.3844V4.23335H459.855V25.3844H455.622ZM459.855 4.23335V0H472.555V4.23335H459.855ZM472.555 25.3844V4.23335H476.773V25.3844H472.555Z" fill="black"/>
<path d="M497.936 25.3844V29.6177H485.236V25.3844H497.936ZM481.003 25.3844V4.23335H485.236V25.3844H481.003ZM485.236 4.23335V0H497.936V4.23335H485.236ZM497.936 25.3844V4.23335H502.154V25.3844H497.936Z" fill="black"/>
<path d="M514.851 29.6177V4.23335H506.385V0H527.536V4.23335H519.085V29.6177H514.851Z" fill="black"/>
</svg>
